<svg xmlns="http://www.w3.org/2000/svg" xmlns:xlink="http://www.w3.org/1999/xlink" id="Layer_1" x="0px" y="0px" viewBox="0 0 647.8 648.5" style="enable-background:new 0 0 647.8 648.5;" xml:space="preserve"><style type="text/css">	.st0{opacity:0.41;}	.st1{fill:#809484;}</style><g class="st0">	<g>		<g>			<g>				<path class="st1" d="M549.7,354.6c1.8-0.5,3.7-0.8,6-0.9c8.7-0.4,16.6,1.3,23.7,4.7c3.7-0.7,7.4-1.9,11-3.5     c1.8-0.8,3.6-1.6,5.3-2.6c1.7-1,3.3-2,5-3.1c3.3-2.2,6.4-4.7,9.4-7.4c0.8-0.7,1.5-1.3,2.2-2c0.7-0.7,1.4-1.4,2.1-2.1     c1.4-1.4,2.7-2.9,4-4.3c1.1,2.3,2.6,4.2,4.5,5.7c2,1.5,4.3,2.5,7.1,2.7c2.2,0.2,4.4-0.2,6.3-1c1.9-0.8,3.6-2.1,5.1-3.6     c2.9-3.2,4.7-7.7,4.8-12.5h-8c-0.1,4.4-2.9,8.6-7.3,8.7c-4.7,0.1-6.5-4.6-6.6-8.7h-9c-2.8,3.2-5.7,6.4-8.7,9.4     c-1.5,1.5-3,3-4.6,4.3c-1.6,1.4-3.3,2.7-5,3.9c-3.4,2.4-7,4.5-10.8,6.2c-3.8,1.6-7.8,2.8-12.1,3.3c-4.2,0.6-11.1,0.5-16.5-1     c-2.7-0.8-5-1.9-6.5-3.4c-1.5-1.6-2.1-3.6-1.4-6.2c0.3-1,0.8-2,1.4-3c0.7-1,1.5-2,2.3-2.9c1.7-1.9,3.9-3.5,6.1-4.5     c2.4-1.1,6.3-1.9,9.1-1.2c2.9,0.7,6.9,4.8,5.3,6.8c-0.7-0.9-1.8-1.7-3.4-2.1c-4.3-1.1-6.9,1-7.7,3.6c-0.9,2.6,0.2,5.9,3.8,7.6     c3.8,1.7,7.7,1,10.7-1c1.5-1,2.8-2.4,3.7-3.9c0.5-0.8,0.8-1.6,1.1-2.4c0.3-0.8,0.4-1.6,0.4-2.5c0.1-5-3-8.9-7.4-11.1h-18.2h0     c-3.7,1.5-6.8,3.7-9.2,6.2c-2.4,2.5-4,5.3-5,8.1c-0.9,2.8-0.9,5.7,0.2,8.4C544,350.1,546.2,352.5,549.7,354.6z"></path>			</g>			<g>				<path class="st1" d="M540.4,412.7c-2.2-0.5-4.2-0.7-6-0.7c-2.9-2.9-4.4-5.8-4.7-8.7c-0.1-0.7-0.1-1.4,0-2.1c0-0.3,0.1-0.7,0.1-1     c0-0.3,0.1-0.7,0.2-1c0.3-1.4,0.9-2.7,1.7-3.9c3.3-4.9,9.5-9,17.4-10.1c-1.6-1.2-2.9-2.5-4.1-3.9c-1.2-1.4-2.3-2.9-3.2-4.4     c-0.9-1.5-1.5-3.1-2-4.6c-0.5-1.5-0.6-3-0.8-4.5c-0.2-3,0.5-5.7,2.3-8c0.9-1.1,2-2.2,3.4-3.1s3-1.6,5-2.1c1.8-0.5,3.7-0.8,6-0.9     c8.7-0.4,16.6,1.3,23.7,4.7c3.4,1.7,6.7,3.8,9.8,6.2c3.1,2.4,5.8,5.2,8.4,8.1c2.6,3,5,6.2,7.3,9.6c2.1,3.3,4.1,6.8,5.9,10.3     c3.4-4,8.3-6.4,14.1-5.1c4.3,1,7.5,3.8,9.4,7.6c0.9,1.9,1.5,4,1.8,6.3c0.1,1.1,0.1,2.3,0.1,3.4c-0.1,1.1-0.3,2.3-0.6,3.4     c-1.3,4.6-4.2,8.6-7.8,10.9c-3.7,2.3-8.1,3-12.3,1.5c-2.7-1-4.7-2.5-6.2-4.5c-0.7-1-1.3-2-1.8-3.1c-0.5-1.1-0.9-2.3-1.1-3.6     c-3.2,2.2-6.8,4.1-10.4,6c-3.6,1.8-7.2,3.4-10.9,4.7c-7.6,2.5-15.3,3.8-22.9,3.3C556.1,418.3,549,414.6,540.4,412.7z      M622.3,395.7c-2.1-0.4-3.8,0.5-5.1,1.8c-0.6,0.7-1.2,1.5-1.6,2.4c-0.5,0.9-0.9,1.8-1.2,2.7c-0.9,4-0.4,9,4.2,10.2     c4.2,1,8-2.4,9.2-6.6c0.3-1.1,0.5-2.3,0.4-3.4c-0.1-1.1-0.4-2.2-0.9-3.2C626.2,397.6,624.6,396.1,622.3,395.7z M558.8,415.8     c4.3,0.6,8.5,0.5,12.7,0c4.1-0.6,8-1.7,12-3.2c2-0.7,3.9-1.6,5.8-2.5c1.9-0.9,3.8-1.9,5.6-3c3.6-2.1,7.2-4.5,10.7-6.9     c-0.4-1-0.9-1.9-1.3-2.9c-0.5-1-1-1.9-1.5-2.9c-1-1.9-2-3.8-3.1-5.6s-2.2-3.6-3.3-5.4c-1.2-1.7-2.4-3.4-3.7-5     c-5.4-6.5-11.8-11.8-19.7-15c-4.4-1.8-11.2-3.5-16.7-3.2c-5.5,0.3-9.9,2.3-9.4,8.2c0.1,0.9,0.4,2,0.7,3c0.3,1,0.8,2.1,1.4,3.1     c1.2,2.1,2.8,4,4.5,5.5c2.9,2.3,6.8,3.8,10.5,3.1c2.5-0.1,4.2-1.4,5-3.7l-1-0.6c-0.8,0.4-1.8,0.7-3.1,0.7     c-4.4-0.1-6.5-2.8-6.5-5.5c-0.1-2.8,1.7-5.7,5.6-6.3c4.1-0.7,7.7,1,10.1,3.7c1.2,1.4,2.1,3,2.6,4.7c0.5,1.7,0.5,3.4,0.1,5     c-1.2,4.8-5.1,7.9-10.1,8.8c3.7,3.2,5.8,7.9,4.4,12.7c-1,3.1-3.9,5.9-7.3,7.1c-3.4,1.2-7.3,0.9-10.5-1.8c-3.1-2.5-3.3-6-1.8-8.3     c0.7-1.2,1.9-2.1,3.4-2.4c1.5-0.3,3.2-0.2,5.1,0.9c1.4,0.8,2.3,1.8,2.7,2.9c0.5-0.4,0.8-0.9,0.8-1.6c0-0.7-0.3-1.5-0.6-2.3     c-0.8-1.6-2.1-3.2-3.5-3.9c-2.5-1.4-6.4-1.6-9-1.2c-1.2,0.2-2.4,0.6-3.6,1c-0.6,0.2-1.2,0.5-1.7,0.8c-0.6,0.3-1.2,0.6-1.7,0.9     c-2.2,1.3-4.1,3-5.1,4.7c-0.7,1.2-1,2.3-1,3.3c0,1,0.2,2,0.7,3c1,1.9,3,3.5,5.4,5C548,413.4,554.6,415.3,558.8,415.8z"></path>			</g>			<g>				<path class="st1" d="M510.3,465.8c-2-1.1-3.9-1.8-5.6-2.3c-1-1.8-1.7-3.4-2-5c-0.4-1.6-0.5-3.2-0.3-4.6c0.2-1.4,0.7-2.8,1.4-4     c0.3-0.6,0.8-1.2,1.2-1.7c0.5-0.5,1-1.1,1.5-1.6c2.1-2,5-3.6,8.4-4.5c1.7-0.4,3.5-0.8,5.3-0.9c1.8-0.1,3.7-0.1,5.7,0.2     c-2.4-3.1-4-6.5-4.8-9.9c-0.9-3.4-1.1-6.7-0.4-9.6c0.2-0.7,0.4-1.4,0.7-2.1c0.3-0.7,0.5-1.3,0.9-1.9c0.7-1.2,1.6-2.3,2.7-3.2     c2.3-1.8,5.5-2.8,9.5-2.8c1.8,0,3.8,0.2,6,0.7c8.5,1.9,15.7,5.6,21.7,10.8c1.4,1.3,2.8,2.6,4.1,4c1.3,1.4,2.5,2.9,3.6,4.5     c2.3,3.1,4.3,6.5,6,10.1c0.9,1.8,1.7,3.6,2.5,5.5c0.7,1.8,1.4,3.7,2,5.6c1.2,3.8,2.2,7.7,3.1,11.6c4.2-3,9.5-4.1,14.8-1.3     c3.9,2,6.3,5.6,7.1,9.8c0.9,4.2,0,8.9-2.3,12.9c-1.2,2.1-2.7,3.9-4.5,5.4c-1.8,1.4-3.8,2.5-5.9,3.1c-4.1,1.3-8.5,0.8-12.2-1.7     c-4.7-3.2-6.3-8.2-5.8-13.1c-7.6,2.3-15.4,4.3-23.4,4.7c-4,0.3-7.9,0.2-11.7-0.2c-1.9-0.2-3.8-0.5-5.7-0.9     c-1.9-0.4-3.7-0.9-5.5-1.6C524,475.2,518,469.8,510.3,465.8z M593.7,470.6c-3.8-1.8-7.5,1.3-9.5,4.5c-1,1.8-1.6,4-1.5,6     c0.1,2,0.9,3.8,2.9,4.9c1.9,1,4,1,5.9,0.2c1.9-0.8,3.5-2.3,4.6-4.2C598.6,478,598,472.6,593.7,470.6z M527.2,473.5     c4,1.7,8,2.7,12.2,3.2c2.1,0.3,4.1,0.4,6.2,0.4c2.1,0,4.2-0.1,6.2-0.3c8.2-0.9,16.7-3.3,24.5-6.2c-0.4-2.1-0.8-4.2-1.2-6.2     c-0.4-2.1-0.9-4.1-1.5-6.2c-1.2-4.1-2.5-8.1-4.2-11.9c-1.6-3.8-3.8-7.4-6.3-10.7c-2.5-3.3-5.5-6.3-8.9-8.9     c-3.8-2.9-9.9-6.3-15.3-7.5c-2.7-0.6-5.2-0.7-7.2,0.1c-1,0.4-1.8,1-2.5,1.9c-0.7,0.9-1.1,2-1.5,3.5c-0.8,3.6,0.8,9.2,3.5,12.9     c2.1,3,5.6,5.4,9.3,5.7c2.5,0.6,4.4-0.3,5.8-2.3l-0.8-0.9c-0.9,0.2-1.9,0.2-3.1-0.1c-4.2-1.2-5.6-4.4-4.9-7     c0.3-1.3,1.1-2.6,2.4-3.4c1.2-0.9,2.8-1.4,4.8-1.2c4.1,0.4,7.2,2.9,8.8,6.3c1.6,3.3,1.5,7.2,0,10.1c-0.6,1.1-1.3,2-2.1,2.8     c-0.8,0.8-1.9,1.4-2.9,1.9c-2.1,0.9-4.5,1.3-7,1.1c1.4,2.1,2.3,4.3,2.5,6.7c0.3,2.3-0.3,4.6-1.6,6.7c-0.9,1.4-2.2,2.6-3.7,3.5     c-0.8,0.4-1.6,0.8-2.4,1.1c-0.9,0.3-1.8,0.4-2.7,0.5c-3.6,0.3-7.4-1.1-9.8-4.5c-1.1-1.6-1.5-3.2-1.3-4.7     c0.2-1.5,0.8-2.8,1.8-3.8c2-1.9,5.4-2.3,8.5,0.7c1.2,1.1,1.7,2.4,1.9,3.5c2.4-0.9,1.2-6.4-1-8.5c-2.1-2-5.7-3.2-8.4-3.5     c-4.9-0.5-10.8,1.2-13.7,4c-4,3.7-2,8.2,1.9,12.2C517.4,468.4,523.3,471.9,527.2,473.5z"></path>			</g>			<g>				<path class="st1" d="M467.3,509.2c-1.7-1.5-3.3-2.7-4.8-3.6c-1.1-3.9-0.9-7.2,0.3-9.8c0.6-1.3,1.4-2.5,2.3-3.5     c1-1,2.1-1.9,3.4-2.5c1.3-0.7,2.8-1.2,4.4-1.5c1.5-0.4,3.2-0.6,4.9-0.6c3.5,0,7.2,0.6,10.9,2.2c-1.5-3.7-2.2-7.4-2.2-10.9     c0-1.7,0.2-3.4,0.6-4.9c0.4-1.6,0.8-3.1,1.5-4.4c0.7-1.3,1.5-2.5,2.5-3.4c1-1,2.2-1.7,3.5-2.3c2.6-1.2,5.9-1.4,9.8-0.3     c1.8,0.5,3.6,1.2,5.6,2.3c7.8,4.1,13.7,9.5,18.1,16c2.1,3.2,3.9,6.6,5.3,10.2c1.4,3.6,2.6,7.5,3.3,11.3     c0.7,3.9,1.2,7.9,1.4,11.9c0.1,2,0.2,4.1,0.2,6c0,2-0.1,3.9-0.2,5.9c2.5-0.9,5.1-1.2,7.6-0.8c2.5,0.4,4.9,1.4,7.1,3.5     c3.2,2.9,4.7,7.1,4.3,11.3c-0.3,4.2-2.2,8.6-5.5,11.9c-3.5,3.3-8,5.3-12.2,5.5c-4.3,0.2-8.5-1.4-11.4-4.8     c-1.8-2.2-2.8-4.5-3.1-6.9c-0.3-2.4,0-4.9,0.8-7.3c-2,0.1-3.9,0.2-5.9,0.2c-2,0-4-0.1-6-0.2c-4-0.2-8-0.7-11.9-1.4     c-3.8-0.7-7.7-1.9-11.3-3.3c-3.6-1.4-7-3.2-10.2-5.3C478.2,521.9,473.8,515.1,467.3,509.2z M546.7,535.5     c-3.3-2.7-7.5-0.6-10.3,2c-2.9,3-4.9,7.6-1.5,10.8c3.1,3,8.1,2,11.3-1.1C549.5,543.8,550.3,538.4,546.7,535.5z M481.8,521.1     c3.4,2.6,7.2,4.8,11,6.3c3.8,1.5,7.8,2.6,12,3.3c2.1,0.3,4.2,0.6,6.3,0.8c2.1,0.2,4.2,0.2,6.3,0.2c4.2,0,8.5-0.2,12.8-0.6     c0.3-4.3,0.6-8.6,0.6-12.8c0-2.1,0-4.2-0.2-6.3c-0.2-2.1-0.4-4.2-0.8-6.3c-0.7-4.1-1.7-8.1-3.3-12c-1.5-3.8-3.7-7.5-6.3-11     c-2.9-3.8-8-8.6-12.9-11.2c-2.5-1.3-4.9-2-6.9-1.7c-2.1,0.2-4,1.4-5.3,4.1c-0.8,1.7-1.2,4-1.2,6.4c0,2.4,0.4,4.9,1.2,7     c1.3,3.4,4,6.7,7.5,7.9c2.2,1.1,4.3,0.9,6.3-0.7l-0.5-1c-0.9-0.1-1.9-0.3-3-1c-1.9-1.1-2.9-2.5-3.3-4c-0.2-0.7-0.3-1.4-0.2-2.1     c0.1-0.7,0.3-1.4,0.6-2c1.3-2.5,4.4-4,8.1-2.6c3.9,1.5,6.2,4.7,6.8,8.3c0.3,1.8,0.3,3.6-0.2,5.4c-0.4,1.7-1.2,3.4-2.3,4.5     c-3.5,3.6-8.5,4.2-13.1,2.6c1.6,4.6,1,9.7-2.6,13.1c-1.1,1.2-2.8,1.9-4.5,2.3c-1.7,0.4-3.6,0.5-5.4,0.2     c-3.6-0.6-6.8-2.9-8.3-6.8c-1.4-3.7,0.1-6.8,2.6-8.1c0.6-0.3,1.3-0.5,2-0.6c0.7-0.1,1.4,0,2.1,0.2c1.4,0.4,2.8,1.5,4,3.3     c0.8,1.4,1.1,2.7,0.9,3.9c2.6-0.3,2.7-6,1.1-8.5c-1.5-2.4-4.7-4.6-7.2-5.6c-2.3-0.9-5-1.2-7.5-1.1c-2.6,0.1-5,0.5-6.8,1.5     c-2.4,1.3-3.3,3.2-3.4,5.3c-0.1,2.1,0.8,4.5,2.2,7C473.6,513.6,478.4,518.6,481.8,521.1z"></path>			</g>			<g>				<path class="st1" d="M414.8,540.2c-1.2-1.9-2.5-3.5-3.8-4.8c0-4,1-7.2,2.8-9.5c0.9-1.1,1.9-2,3.2-2.7c0.6-0.3,1.3-0.6,1.9-0.9     c0.7-0.3,1.3-0.5,2.1-0.7c2.9-0.7,6.2-0.5,9.6,0.4c3.3,0.8,6.8,2.4,9.9,4.8c-0.3-1.9-0.3-3.9-0.2-5.7c0.1-1.8,0.5-3.6,0.9-5.3     c0.9-3.4,2.4-6.3,4.5-8.4c0.5-0.5,1-1,1.6-1.5c0.5-0.5,1.1-0.9,1.7-1.2c1.2-0.7,2.5-1.2,4-1.4c1.4-0.2,3-0.1,4.6,0.3     c1.6,0.3,3.3,1,5,2c1.6,0.9,3.2,2.1,4.8,3.6c6.4,5.9,10.8,12.7,13.4,20.1c0.6,1.8,1.2,3.7,1.6,5.5c0.4,1.9,0.7,3.8,0.9,5.7     c0.4,3.8,0.5,7.7,0.2,11.7c-0.5,8-2.4,15.8-4.7,23.4c5.2-0.5,10.3,1.3,13.5,6.3c2.3,3.7,2.6,8,1.3,12c-0.7,2-1.7,4-3.1,5.7     c-1.4,1.7-3.2,3.2-5.2,4.3c-4.2,2.4-9,3.2-13.2,2.2c-4.2-1-7.8-3.6-9.8-7.6c-2.4-5.1-1.3-10.2,1.5-14.2     c-3.9-0.9-7.8-1.9-11.6-3.1c-1.9-0.6-3.8-1.3-5.6-2c-1.9-0.7-3.7-1.6-5.5-2.5c-3.6-1.8-7-3.8-10.1-6c-1.6-1.1-3-2.3-4.4-3.6     c-1.4-1.3-2.8-2.7-4-4.1C422,555.3,419.4,547.6,414.8,540.2z M484.6,586c-1.2-1.7-3-2.3-4.9-2.3c-1.9,0-3.9,0.6-5.6,1.5     c-3.5,2.2-6.6,6.2-4.2,10.2c2.3,3.8,7.3,4,11.1,1.8c2-1.2,3.6-3,4.4-5C486.2,590.2,486,587.9,484.6,586z M425.6,555.4     c2.6,3.4,5.6,6.4,8.9,8.9c3.3,2.5,7,4.7,10.7,6.3c3.8,1.7,7.8,3,11.9,4.2c2.1,0.6,4.1,1.1,6.2,1.5c2.1,0.4,4.2,0.8,6.2,1.2     c3-7.8,5.3-16.3,6.2-24.5c0.2-2,0.3-4.2,0.3-6.2c0-2.1-0.2-4.2-0.4-6.2c-0.5-4.1-1.6-8.2-3.2-12.2c-1.8-4.4-5.5-10.4-9.6-14.1     c-4.1-3.7-8.6-5.3-12.4-0.8c-2.5,2.7-3.9,8.3-3.5,12.9c0.2,1.9,0.7,3.7,1.6,5.4c0.9,1.7,2.1,3.2,3.6,4.2c1.9,1.7,3.9,2,6.2,0.9     l-0.3-1.2c-0.9-0.3-1.8-0.8-2.6-1.7c-3-3.1-2.6-6.5-0.7-8.5c0.9-1,2.3-1.6,3.8-1.8c1.5-0.2,3.1,0.2,4.7,1.3     c3.4,2.4,4.7,6.1,4.5,9.8c-0.1,0.9-0.2,1.8-0.5,2.7c-0.3,0.9-0.6,1.7-1.1,2.4c-0.9,1.5-2.1,2.8-3.5,3.7     c-2.1,1.3-4.4,1.9-6.7,1.6c-2.3-0.2-4.6-1.1-6.7-2.5c0.2,2.5-0.2,4.9-1.1,7c-0.5,1-1.1,2.1-1.9,2.9c-0.8,0.8-1.7,1.5-2.8,2.1     c-2.9,1.5-6.9,1.5-10.1,0c-3.3-1.6-5.9-4.6-6.3-8.8c-0.2-2,0.3-3.5,1.2-4.8c0.9-1.2,2.1-2.1,3.4-2.4c2.7-0.6,5.8,0.7,7,4.9     c0.4,1.6,0.3,2.9-0.1,4c2.6,0.5,4.2-4.9,3.3-7.9c-0.8-2.7-3.4-5.7-5.5-7.2c-4-2.9-10-4.4-13.9-3.3c-5.3,1.2-5.8,6-4.4,11.5     C419.6,546,423,552,425.6,555.4z"></path>			</g>			<g>				<path class="st1" d="M355.9,556.3c-0.7-2.2-1.5-4-2.4-5.6c0.5-2,1.2-3.6,2.1-5c0.9-1.4,1.9-2.4,3.1-3.4c2.3-1.8,5-2.5,8-2.3     c1.5,0.1,3,0.3,4.5,0.8c1.5,0.5,3.1,1.1,4.6,2c1.5,0.9,3,1.9,4.4,3.2c1.4,1.2,2.7,2.6,3.9,4.1c1-7.9,5.2-14.1,10.1-17.4     c1.2-0.8,2.6-1.4,3.9-1.7c0.3-0.1,0.7-0.1,1-0.2c0.3-0.1,0.7-0.1,1-0.1c0.7-0.1,1.4-0.1,2.1,0c2.8,0.3,5.8,1.8,8.7,4.7     c1.3,1.3,2.5,2.9,3.8,4.8c4.7,7.3,7.2,15.1,7.7,22.9c0.5,7.6-0.8,15.3-3.3,22.9c-1.3,3.7-2.9,7.4-4.7,10.9     c-1.8,3.6-3.8,7.1-6,10.4c1.3,0.2,2.5,0.6,3.7,1.2c1.2,0.5,2.3,1.1,3.2,1.9c2,1.6,3.6,3.7,4.5,6.6c1.3,4.2,0.5,8.4-1.9,12     c-2.4,3.5-6.3,6.2-10.7,7.5c-1.2,0.3-2.3,0.6-3.5,0.6c-1.2,0.1-2.3,0-3.5-0.1c-2.3-0.3-4.5-0.9-6.4-1.9c-3.8-2-6.6-5.4-7.4-9.8     c-1-5.6,1.4-10.2,5.2-13.5c-3.5-1.8-7-3.8-10.3-5.9c-3.4-2.3-6.6-4.7-9.6-7.3c-3-2.6-5.7-5.3-8.1-8.4c-2.4-3.1-4.5-6.3-6.2-9.8     C359,572.7,358.6,564.7,355.9,556.3z M411.5,618.8c-1.5-4-6.2-4.3-9.9-3.5c-1,0.3-2,0.8-2.9,1.3c-0.9,0.5-1.8,1.1-2.4,1.8     c-1.4,1.4-2.1,3.3-1.4,5.5c0.6,2.1,2.1,3.5,4,4.4c1,0.4,2,0.6,3.1,0.7c1.1,0.1,2.2-0.1,3.2-0.4     C409.7,627.4,413.2,623.2,411.5,618.8z M362.4,573.9c3.3,8,8.5,14.4,15,19.7c1.6,1.4,3.3,2.6,5,3.7c1.7,1.2,3.5,2.3,5.4,3.3     s3.7,2.1,5.6,3.1c1,0.5,1.9,1,2.9,1.5c1,0.4,1.9,0.9,2.9,1.3c2.4-3.5,4.8-7.1,6.9-10.7c1.1-1.8,2.1-3.7,3-5.6     c0.9-1.9,1.8-3.9,2.5-5.8c1.5-3.9,2.6-7.9,3.2-12c0.6-4.2,0.6-8.4,0-12.7c-0.6-4.7-2.6-11.5-5.6-16.1c-1.5-2.3-3.2-4.2-5.2-5     c-1.9-0.8-4.1-0.7-6.6,0.9c-1.6,1-3,2.8-4.2,4.9c-1.2,2.1-2.1,4.4-2.5,6.6c-0.6,3.6,0.1,7.8,2.5,10.6c1.4,2.1,3.3,3,5.8,2.6     l0.1-1.2c-0.8-0.5-1.5-1.2-2.1-2.3c-1.1-1.9-1.3-3.6-0.9-5.1c0.3-1.5,1.2-2.6,2.4-3.4c2.3-1.5,5.8-1.2,8.3,1.8     c2.7,3.3,3,7.2,1.8,10.5c-1.2,3.4-4,6.2-7.1,7.3c-4.8,1.4-9.4-0.7-12.7-4.4c-0.9,5-4,8.9-8.8,10.1c-1.6,0.4-3.3,0.4-5-0.1     c-1.7-0.5-3.4-1.4-4.7-2.6c-2.8-2.4-4.4-5.9-3.8-10.1c0.7-3.9,3.6-5.7,6.3-5.6c2.7,0,5.4,2.1,5.5,6.5c0,1.6-0.4,2.9-1.1,3.8     c2.3,1.1,5.3-3.8,5.2-6.8c-0.1-2.8-1.8-6.4-3.5-8.5c-1.5-1.9-3.7-3.6-5.9-4.8c-1.1-0.6-2.3-1.1-3.4-1.4     c-1.1-0.4-2.2-0.6-3.2-0.6c-5.4-0.2-7.1,4.5-7.2,10.1C359.1,563.3,360.8,570,362.4,573.9z"></path>			</g>			<g>				<path class="st1" d="M294.8,556.7c-0.1-2.3-0.4-4.2-0.9-6c2-3.5,4.5-5.7,7.2-6.7c2.7-1.1,5.5-1.2,8.4-0.2c2.8,1,5.6,2.6,8.1,5     c2.5,2.4,4.7,5.6,6.2,9.2c1.5-3.7,3.7-6.8,6.2-9.2c2.5-2.4,5.3-4,8.1-5c2.8-0.9,5.7-0.9,8.4,0.2c2.7,1,5.1,3.2,7.1,6.7     c0.9,1.6,1.7,3.4,2.4,5.6c2.6,8.4,3,16.4,1.5,24.1c-0.7,3.7-1.9,7.4-3.5,11c-0.8,1.8-1.6,3.6-2.6,5.3c-1,1.7-2,3.3-3.1,5     c-2.2,3.3-4.7,6.4-7.4,9.4c-0.7,0.8-1.4,1.5-2,2.2c-0.7,0.7-1.4,1.4-2.1,2.1c-1.4,1.4-2.9,2.7-4.3,4c2.4,1.1,4.4,2.7,5.9,4.8     c1.5,2.1,2.5,4.5,2.6,7.5c0.1,2.2-0.3,4.3-1.2,6.1c-0.9,1.8-2.1,3.5-3.7,4.9c-3.2,2.8-7.6,4.5-12.3,4.6     c-4.8-0.1-9.3-1.9-12.5-4.8c-1.6-1.4-2.8-3.2-3.6-5.1c-0.8-2-1.2-4.1-1-6.3c0.2-2.9,1.2-5.2,2.7-7.1c1.5-2,3.5-3.5,5.7-4.5     c-1.5-1.3-2.9-2.7-4.3-4c-0.7-0.7-1.4-1.4-2.1-2.1c-0.7-0.7-1.4-1.5-2-2.2c-2.7-3-5.2-6.2-7.4-9.4c-1.1-1.6-2.1-3.3-3.1-5     c-1-1.7-1.8-3.5-2.6-5.3c-1.6-3.6-2.7-7.2-3.5-11C293.5,573.4,295.2,565.5,294.8,556.7z M332.4,631.4c-0.4-4.2-4.8-5.7-8.7-5.8     c-4.1,0.1-8.8,1.9-8.7,6.6c0.1,4.3,4.3,7.2,8.7,7.3C328.5,639.3,332.9,636,332.4,631.4z M296.6,575.4c0.6,4.4,1.7,8.3,3.3,12.1     c1.6,3.8,3.7,7.4,6.2,10.8c1.2,1.7,2.5,3.4,3.9,5c1.4,1.6,2.8,3.1,4.3,4.6c3,3,6.2,5.9,9.4,8.7c3.2-2.8,6.4-5.7,9.4-8.7     c1.5-1.5,3-3,4.3-4.6c1.4-1.6,2.7-3.3,3.9-5c2.4-3.4,4.5-7,6.2-10.8c1.6-3.8,2.8-7.8,3.3-12.1c0.6-4.8,0.5-11.8-1.2-17     c-0.8-2.7-2-4.8-3.7-6.2c-1.7-1.4-3.8-1.8-6.6-0.8c-3.5,1.3-7.6,5.3-9.5,9.4c-1.5,3.4-1.9,7.5-0.3,10.9c0.8,2.4,2.4,3.7,4.9,3.9     l0.4-1.1c-0.6-0.7-1.1-1.6-1.4-2.8c-1.1-4.3,1-6.9,3.6-7.7c2.6-0.9,5.9,0.2,7.6,3.8c1.7,3.8,1,7.7-1,10.7     c-1,1.5-2.4,2.8-3.9,3.7c-0.8,0.5-1.6,0.8-2.4,1.1c-0.8,0.3-1.6,0.4-2.5,0.4c-5,0.1-8.9-3-11.1-7.4c-2.2,4.4-6.1,7.5-11.1,7.4     c-0.8,0-1.7-0.1-2.5-0.4c-0.8-0.3-1.6-0.7-2.4-1.1c-1.5-0.9-2.9-2.2-3.9-3.7c-2.1-3-2.8-6.8-1-10.7c1.6-3.6,4.9-4.7,7.6-3.8     c2.6,0.8,4.7,3.4,3.6,7.7c-0.4,1.6-1.2,2.7-2.1,3.4c2,1.6,6.1-2.3,6.8-5.3c0.7-2.8-0.1-6.6-1.2-9.1c-1-2.2-2.6-4.4-4.5-6.1     c-0.9-0.8-1.9-1.6-2.9-2.3c-1-0.6-2-1.1-3-1.4c-2.6-0.8-4.6-0.1-6.2,1.4c-1.6,1.5-2.7,3.8-3.4,6.5     C296.1,564.3,296,571.2,296.6,575.4z"></path>			</g>			<g>				<path class="st1" d="M235.8,541.4c0.5-2.2,0.7-4.2,0.7-6c2.9-2.9,5.8-4.4,8.7-4.7c0.7-0.1,1.4-0.1,2.1,0c0.3,0,0.7,0.1,1,0.1     c0.3,0,0.7,0.1,1,0.2c1.4,0.3,2.7,0.9,3.9,1.7c4.9,3.3,9,9.5,10.1,17.4c1.2-1.6,2.5-2.9,3.9-4.1c1.4-1.2,2.9-2.3,4.4-3.2     c1.5-0.9,3.1-1.5,4.6-2c1.5-0.5,3-0.6,4.5-0.8c3-0.2,5.7,0.5,8,2.3c1.1,0.9,2.2,2,3.1,3.4c0.9,1.4,1.6,3,2.1,5     c0.5,1.8,0.8,3.7,0.9,6c0.4,8.7-1.3,16.6-4.7,23.7c-1.7,3.4-3.8,6.7-6.2,9.8c-2.4,3.1-5.2,5.8-8.1,8.4c-3,2.6-6.2,5-9.6,7.3     c-3.3,2.1-6.8,4.1-10.3,5.9c4,3.4,6.4,8.3,5.1,14.1c-1,4.3-3.8,7.5-7.6,9.4c-1.9,0.9-4,1.5-6.3,1.8c-1.1,0.1-2.3,0.1-3.4,0.1     c-1.1-0.1-2.3-0.3-3.4-0.6c-4.6-1.3-8.6-4.2-10.9-7.8c-2.3-3.7-3-8.1-1.5-12.3c1-2.7,2.5-4.7,4.5-6.2c1-0.7,2-1.3,3.1-1.8     c1.1-0.5,2.3-0.9,3.6-1.1c-2.2-3.2-4.1-6.8-6-10.4c-1.8-3.6-3.4-7.2-4.7-10.9c-2.5-7.6-3.8-15.3-3.3-22.9     C230.2,557.1,233.9,550,235.8,541.4z M252.8,623.3c0.4-2.1-0.5-3.8-1.8-5.1c-0.7-0.6-1.5-1.2-2.4-1.6c-0.9-0.5-1.8-0.9-2.7-1.2     c-4-0.9-9-0.4-10.2,4.2c-1,4.2,2.4,8,6.6,9.2c1.1,0.3,2.3,0.5,3.4,0.4c1.1-0.1,2.2-0.4,3.2-0.9     C250.9,627.2,252.4,625.6,252.8,623.3z M232.7,559.8c-0.6,4.3-0.5,8.5,0,12.7c0.6,4.1,1.7,8,3.2,12c0.7,2,1.6,3.9,2.5,5.8     c0.9,1.9,1.9,3.8,3,5.6c2.1,3.6,4.5,7.2,6.9,10.7c1-0.4,1.9-0.9,2.9-1.3c1-0.5,1.9-1,2.9-1.5c1.9-1,3.8-2,5.6-3.1     c1.8-1.1,3.6-2.2,5.4-3.3c1.7-1.2,3.4-2.4,5-3.7c6.5-5.4,11.8-11.8,15-19.7c1.8-4.4,3.5-11.2,3.2-16.7c-0.3-5.5-2.3-9.9-8.2-9.4     c-0.9,0.1-2,0.4-3,0.7c-1,0.3-2.1,0.8-3.1,1.4c-2.1,1.2-4,2.8-5.5,4.5c-2.3,2.9-3.8,6.8-3.1,10.5c0.1,2.5,1.4,4.2,3.7,5l0.6-1     c-0.4-0.8-0.7-1.8-0.7-3.1c0.1-4.4,2.8-6.5,5.5-6.5c2.8-0.1,5.7,1.7,6.3,5.6c0.7,4.1-1,7.7-3.7,10.1c-1.4,1.2-3,2.1-4.7,2.6     c-1.7,0.5-3.4,0.5-5,0.1c-4.8-1.2-7.9-5.1-8.8-10.1c-3.2,3.7-7.9,5.8-12.7,4.4c-3.1-1-5.9-3.9-7.1-7.3     c-1.2-3.4-0.9-7.3,1.8-10.5c2.5-3.1,6-3.3,8.3-1.8c1.2,0.7,2.1,1.9,2.4,3.4c0.3,1.5,0.2,3.2-0.9,5.1c-0.8,1.4-1.8,2.3-2.9,2.7     c0.4,0.5,0.9,0.8,1.6,0.8c0.7,0,1.5-0.3,2.3-0.6c1.6-0.8,3.2-2.1,3.9-3.5c1.4-2.5,1.6-6.4,1.2-9c-0.2-1.2-0.6-2.4-1-3.6     c-0.2-0.6-0.5-1.2-0.8-1.7c-0.3-0.6-0.6-1.2-0.9-1.7c-1.3-2.2-3-4.1-4.7-5.1c-1.2-0.7-2.3-1-3.3-1c-1,0-2,0.2-3,0.7     c-1.9,1-3.5,3-5,5.4C235.1,549,233.2,555.6,232.7,559.8z"></path>			</g>			<g>				<path class="st1" d="M185.1,599.3c2.8-5.3,1.7-10.6-1.3-14.8c3.9-0.9,7.8-1.9,11.6-3.1c1.9-0.6,3.8-1.3,5.6-2     c1.9-0.7,3.7-1.6,5.5-2.5c3.6-1.8,7-3.8,10.1-6c1.6-1.1,3-2.3,4.4-3.6c1.4-1.3,2.8-2.7,4-4.1c5.2-6,8.9-13.2,10.8-21.7     c0.5-2.2,0.7-4.2,0.7-6c0-4-1-7.2-2.8-9.5c-0.9-1.1-1.9-2-3.2-2.7c-0.6-0.3-1.3-0.6-1.9-0.9c-0.7-0.3-1.3-0.5-2.1-0.7     c-2.9-0.7-6.2-0.5-9.6,0.4c-3.3,0.8-6.8,2.4-9.9,4.8l-9.1,15.7c-0.2,2.5,0.2,4.9,1.1,7c0.5,1,1.1,2.1,1.9,2.9     c0.8,0.8,1.7,1.5,2.8,2.1c2.9,1.5,6.9,1.5,10.1,0c3.3-1.6,5.9-4.6,6.3-8.8c0.2-2-0.3-3.5-1.2-4.8c-0.8-1.2-2.1-2.1-3.4-2.4     c-2.7-0.6-5.8,0.7-7,4.9c-0.3,1.2-0.3,2.2-0.1,3.1l-0.9,0.8c-2.1-1.4-2.9-3.3-2.3-5.8c0.3-3.7,2.7-7.2,5.7-9.3     c3.7-2.6,9.3-4.3,12.9-3.5c1.4,0.4,2.6,0.8,3.5,1.5c0.9,0.7,1.5,1.5,1.9,2.5c0.8,2,0.7,4.5,0.1,7.2c-1.2,5.4-4.5,11.5-7.5,15.3     c-2.6,3.4-5.6,6.4-8.9,8.9c-3.3,2.5-7,4.7-10.7,6.3c-3.8,1.7-7.8,3-11.9,4.2c-2.1,0.6-4.1,1.1-6.2,1.5c-2.1,0.4-4.2,0.8-6.2,1.2     l-4.5,7.8c3.3,2.1,6.3,5.7,4.5,9.5c-2,4.3-7.3,4.8-11.4,2.5l-4,7c4,2.3,8.7,3.2,12.9,2.3C179.5,605.6,183.1,603.2,185.1,599.3z"></path>			</g>		</g>		<g>			<g>				<path class="st1" d="M185,505.6c-0.5,1.8-1.2,3.6-2.3,5.6c-4.1,7.8-9.5,13.7-16,18.1c-0.6,1.8-1.2,3.7-1.6,5.5     c-0.4,1.9-0.7,3.8-0.9,5.7c-0.4,3.8-0.5,7.7-0.2,11.7c0.5,8,2.4,15.8,4.7,23.4c-4.9-0.5-9.9,1.1-13.1,5.8     c-2.6,3.7-3,8.1-1.7,12.2c0.6,2.1,1.7,4.1,3.1,5.9c1.5,1.7,3.3,3.3,5.4,4.5l4-7c-1.9-1.1-3.4-2.8-4.2-4.6     c-0.8-1.9-0.8-4,0.2-5.9c1.1-2.1,2.9-2.8,4.9-2.9c2-0.1,4.2,0.6,6,1.5l4.5-7.8c-3-7.8-5.3-16.3-6.2-24.5c-0.2-2-0.3-4.2-0.3-6.2     c0-2.1,0.2-4.2,0.4-6.2c0.5-4.1,1.6-8.2,3.2-12.2c1.6-3.9,5.1-9.8,9.2-13.8c4.1-3.9,8.5-6,12.2-1.9c2.8,2.9,4.5,8.8,4,13.7     c-0.3,2.7-1.5,6.4-3.5,8.4c-2.1,2.2-7.6,3.5-8.5,1c1.1-0.1,2.4-0.7,3.5-1.9c3-3.1,2.6-6.5,0.7-8.5c-0.9-1-2.3-1.6-3.8-1.8     c-1.5-0.2-3.1,0.2-4.7,1.3c-3.4,2.4-4.7,6.1-4.5,9.8c0.1,0.9,0.2,1.8,0.5,2.7c0.3,0.9,0.6,1.7,1.1,2.4c0.9,1.5,2.1,2.8,3.5,3.7     c2.1,1.3,4.4,1.9,6.7,1.6c2.3-0.2,4.6-1.1,6.7-2.5l9.1-15.7h0c0.3-1.9,0.3-3.9,0.2-5.7c-0.1-1.8-0.5-3.6-0.9-5.3     c-0.9-3.4-2.4-6.3-4.5-8.4c-0.5-0.5-1-1-1.6-1.5c-0.5-0.5-1.1-0.9-1.7-1.2c-1.2-0.7-2.5-1.2-4-1.4c-1.4-0.2-3-0.1-4.6,0.3     C188.4,504,186.8,504.6,185,505.6z"></path>			</g>			<g>				<path class="st1" d="M139.3,468.3c1.5-1.7,2.7-3.3,3.6-4.8c3.9-1.1,7.2-0.9,9.8,0.3c1.3,0.6,2.5,1.4,3.5,2.3     c1,1,1.9,2.1,2.5,3.4c0.7,1.3,1.2,2.8,1.5,4.4c0.4,1.5,0.6,3.2,0.6,4.9c0.1,3.5-0.6,7.2-2.2,10.9c3.7-1.5,7.4-2.2,10.9-2.2     c1.7,0,3.4,0.2,4.9,0.6c1.6,0.4,3.1,0.8,4.4,1.5c1.3,0.7,2.5,1.5,3.4,2.5c1,1,1.7,2.2,2.3,3.5c1.2,2.6,1.4,5.9,0.3,9.8     c-0.5,1.8-1.2,3.6-2.3,5.6c-4.1,7.8-9.5,13.7-16,18.1c-3.2,2.1-6.6,3.9-10.2,5.3c-3.6,1.4-7.5,2.6-11.3,3.3     c-3.9,0.7-7.9,1.2-11.9,1.4c-2,0.1-4.1,0.2-6,0.2c-2,0-3.9-0.1-5.9-0.2c0.9,2.5,1.2,5.1,0.8,7.6c-0.4,2.5-1.4,4.9-3.5,7.1     c-2.9,3.2-7.1,4.7-11.3,4.3c-4.2-0.3-8.6-2.2-11.9-5.5c-3.3-3.5-5.3-8-5.5-12.2c-0.2-4.3,1.4-8.5,4.8-11.4     c2.2-1.8,4.5-2.8,6.9-3.1c2.4-0.3,4.9,0,7.3,0.8c-0.1-2-0.2-3.9-0.2-5.9c0-2,0.1-4,0.2-6c0.2-4,0.7-8,1.4-11.9     c0.7-3.8,1.9-7.7,3.3-11.3c1.4-3.6,3.2-7,5.3-10.2C126.6,479.2,133.4,474.8,139.3,468.3z M113,547.7c2.7-3.3,0.6-7.5-2-10.3     c-3-2.9-7.6-4.9-10.8-1.5c-3,3.1-2,8.1,1.1,11.3C104.7,550.5,110.1,551.3,113,547.7z M127.4,482.8c-2.6,3.4-4.8,7.2-6.3,11     c-1.5,3.8-2.6,7.8-3.3,12c-0.3,2.1-0.6,4.2-0.8,6.3c-0.2,2.1-0.2,4.2-0.2,6.3c0,4.2,0.2,8.5,0.6,12.8c4.3,0.3,8.6,0.6,12.8,0.6     c2.1,0,4.2,0,6.3-0.2c2.1-0.2,4.2-0.4,6.3-0.8c4.1-0.7,8.1-1.7,12-3.3c3.8-1.5,7.5-3.7,11-6.3c3.8-2.9,8.6-8,11.2-12.9     c1.3-2.5,2-4.9,1.7-6.9c-0.2-2.1-1.4-4-4.1-5.3c-1.7-0.8-4-1.2-6.4-1.2c-2.4,0-4.9,0.4-7,1.2c-3.4,1.3-6.7,4-7.9,7.5     c-1.1,2.2-0.9,4.3,0.7,6.3l1-0.5c0.1-0.9,0.3-1.9,1-3c1.1-1.9,2.5-2.9,4-3.3c0.7-0.2,1.4-0.3,2.1-0.2c0.7,0.1,1.4,0.3,2,0.6     c2.5,1.3,4,4.4,2.6,8.1c-1.5,3.9-4.7,6.2-8.3,6.8c-1.8,0.3-3.6,0.3-5.4-0.2c-1.7-0.4-3.4-1.2-4.5-2.3c-3.6-3.5-4.2-8.5-2.6-13.1     c-4.6,1.6-9.7,1-13.1-2.6c-1.2-1.1-1.9-2.8-2.3-4.5c-0.4-1.7-0.5-3.6-0.2-5.4c0.6-3.6,2.9-6.8,6.8-8.3c3.7-1.4,6.8,0.1,8.1,2.6     c0.3,0.6,0.5,1.3,0.6,2c0.1,0.7,0,1.4-0.2,2.1c-0.4,1.4-1.5,2.8-3.3,4c-1.4,0.8-2.7,1.1-3.9,0.9c0.3,2.6,6,2.7,8.5,1.1     c2.4-1.5,4.6-4.7,5.6-7.2c0.9-2.3,1.2-5,1.1-7.5c-0.1-2.6-0.5-5-1.5-6.8c-1.3-2.4-3.2-3.3-5.3-3.4c-2.1-0.1-4.5,0.8-7,2.2     C134.9,474.6,129.9,479.4,127.4,482.8z"></path>			</g>			<g>				<path class="st1" d="M108.3,415.8c1.9-1.2,3.5-2.5,4.8-3.8c4,0,7.2,1,9.5,2.8c1.1,0.9,2,1.9,2.7,3.2c0.3,0.6,0.6,1.3,0.9,1.9     c0.3,0.7,0.5,1.3,0.7,2.1c0.7,2.9,0.5,6.2-0.4,9.6c-0.8,3.3-2.4,6.8-4.8,9.9c1.9-0.3,3.9-0.3,5.7-0.2c1.8,0.1,3.6,0.5,5.3,0.9     c3.4,0.9,6.3,2.4,8.4,4.5c0.5,0.5,1,1,1.5,1.6c0.5,0.5,0.9,1.1,1.2,1.7c0.7,1.2,1.2,2.5,1.4,4c0.2,1.4,0.1,3-0.3,4.6     c-0.3,1.6-1,3.3-2,5c-0.9,1.6-2.1,3.2-3.6,4.8c-5.9,6.4-12.7,10.8-20.1,13.4c-1.8,0.6-3.7,1.2-5.6,1.6c-1.9,0.4-3.8,0.7-5.7,0.9     c-3.8,0.4-7.7,0.5-11.7,0.2c-8-0.5-15.8-2.4-23.4-4.7c0.5,5.2-1.3,10.3-6.3,13.5c-3.7,2.3-8,2.6-12,1.3c-2-0.7-4-1.7-5.7-3.1     c-1.7-1.4-3.2-3.2-4.3-5.2c-2.4-4.2-3.2-9-2.2-13.2c1-4.2,3.6-7.8,7.6-9.8c5.1-2.4,10.2-1.3,14.2,1.5c0.9-3.9,1.9-7.8,3.1-11.6     c0.6-1.9,1.3-3.8,2-5.6c0.7-1.9,1.6-3.7,2.5-5.5c1.8-3.6,3.8-7,6-10.1c1.1-1.6,2.3-3,3.6-4.4c1.3-1.4,2.7-2.8,4.1-4     C93.2,423,100.9,420.4,108.3,415.8z M62.5,485.6c1.7-1.2,2.3-3,2.3-4.9c0-1.9-0.6-3.9-1.5-5.6c-2.2-3.5-6.2-6.6-10.2-4.2     c-3.8,2.3-4,7.3-1.8,11.1c1.2,2,3,3.6,5,4.4C58.3,487.2,60.6,487,62.5,485.6z M93.1,426.6c-3.4,2.6-6.4,5.6-8.9,8.9     c-2.5,3.3-4.7,7-6.3,10.7c-1.7,3.8-3,7.8-4.2,11.9c-0.6,2.1-1.1,4.1-1.5,6.2c-0.4,2.1-0.8,4.2-1.2,6.2c7.8,3,16.3,5.3,24.5,6.2     c2,0.2,4.2,0.3,6.2,0.3c2.1,0,4.2-0.2,6.2-0.4c4.1-0.5,8.2-1.6,12.2-3.2c4.4-1.8,10.4-5.4,14.1-9.6c3.7-4.1,5.3-8.6,0.8-12.4     c-2.7-2.5-8.3-3.9-12.9-3.5c-1.9,0.2-3.7,0.7-5.4,1.6c-1.7,0.9-3.2,2.1-4.2,3.6c-1.7,1.9-2,3.9-0.9,6.2l1.2-0.3     c0.3-0.9,0.8-1.8,1.7-2.6c3.1-3,6.5-2.6,8.5-0.7c1,0.9,1.6,2.3,1.8,3.8c0.2,1.5-0.2,3.1-1.3,4.7c-2.4,3.4-6.1,4.7-9.8,4.5     c-0.9-0.1-1.8-0.2-2.7-0.5c-0.9-0.3-1.7-0.6-2.4-1.1c-1.5-0.9-2.8-2.1-3.7-3.5c-1.3-2.1-1.9-4.4-1.6-6.7     c0.2-2.3,1.1-4.6,2.5-6.7c-2.5,0.2-4.9-0.2-7-1.1c-1-0.5-2.1-1.1-2.9-1.9c-0.8-0.8-1.6-1.7-2.1-2.8c-1.5-2.9-1.5-6.9,0-10.1     c1.6-3.3,4.6-5.9,8.8-6.3c2-0.2,3.5,0.3,4.8,1.2c1.2,0.9,2.1,2.1,2.4,3.4c0.6,2.7-0.7,5.8-4.9,7c-1.6,0.4-2.9,0.3-4-0.1     c-0.5,2.6,4.9,4.2,7.9,3.3c2.7-0.8,5.7-3.4,7.2-5.5c2.9-4,4.4-10,3.3-13.9c-1.2-5.3-6-5.8-11.5-4.4     C102.5,420.6,96.5,424,93.1,426.6z"></path>			</g>			<g>				<path class="st1" d="M92.2,356.9c2.2-0.7,4-1.5,5.6-2.4c2,0.5,3.6,1.2,5,2.1c1.4,0.9,2.4,1.9,3.4,3.1c1.8,2.3,2.5,5,2.3,8     c-0.1,1.5-0.3,3-0.8,4.5c-0.5,1.5-1.1,3.1-2,4.6c-0.9,1.5-1.9,3-3.2,4.4c-1.2,1.4-2.6,2.7-4.1,3.9c7.9,1,14.1,5.2,17.4,10.1     c0.8,1.2,1.4,2.6,1.7,3.9c0.1,0.3,0.1,0.7,0.2,1c0.1,0.3,0.1,0.7,0.1,1c0.1,0.7,0.1,1.4,0,2.1c-0.3,2.8-1.8,5.8-4.7,8.7     c-1.3,1.3-2.9,2.5-4.8,3.8c-7.3,4.7-15.1,7.2-22.9,7.7c-7.6,0.5-15.3-0.8-22.9-3.3c-3.7-1.3-7.4-2.9-10.9-4.7     c-3.6-1.8-7.1-3.8-10.4-6c-0.2,1.3-0.6,2.5-1.2,3.7c-0.5,1.2-1.1,2.3-1.9,3.2c-1.6,2-3.7,3.6-6.6,4.5c-4.2,1.3-8.4,0.5-12-1.9     c-3.5-2.4-6.2-6.3-7.5-10.7c-0.3-1.2-0.6-2.3-0.6-3.5c-0.1-1.2,0-2.3,0.1-3.5c0.3-2.3,0.9-4.5,1.9-6.4c2-3.8,5.4-6.6,9.8-7.4     c5.6-1,10.2,1.4,13.5,5.2c1.8-3.5,3.8-7,5.9-10.3c2.3-3.4,4.7-6.6,7.3-9.6c2.6-3,5.3-5.7,8.4-8.1c3.1-2.4,6.3-4.5,9.8-6.2     C75.8,360,83.8,359.6,92.2,356.9z M29.7,412.5c4-1.5,4.3-6.2,3.5-9.9c-0.3-1-0.8-2-1.3-2.9c-0.5-0.9-1.1-1.8-1.8-2.4     c-1.4-1.4-3.3-2.1-5.5-1.4c-2.1,0.6-3.5,2.1-4.4,4c-0.4,1-0.6,2-0.7,3.1c-0.1,1.1,0.1,2.2,0.4,3.2     C21.1,410.7,25.3,414.2,29.7,412.5z M74.6,363.4c-8,3.3-14.4,8.5-19.7,15c-1.4,1.6-2.6,3.3-3.7,5c-1.2,1.7-2.3,3.5-3.3,5.4     s-2.1,3.7-3.1,5.6c-0.5,1-1,1.9-1.5,2.9c-0.4,1-0.9,1.9-1.3,2.9c3.5,2.4,7.1,4.8,10.7,6.9c1.8,1.1,3.7,2.1,5.6,3     c1.9,0.9,3.9,1.8,5.8,2.5c3.9,1.5,7.9,2.6,12,3.2c4.2,0.6,8.4,0.6,12.7,0c4.7-0.6,11.5-2.6,16.1-5.6c2.3-1.5,4.2-3.2,5-5.2     c0.8-1.9,0.7-4.1-0.9-6.6c-1-1.6-2.8-3-4.9-4.2c-2.1-1.2-4.4-2.1-6.6-2.5c-3.6-0.6-7.8,0.1-10.6,2.5c-2.1,1.4-3,3.3-2.6,5.8     l1.2,0.1c0.5-0.8,1.2-1.5,2.3-2.1c1.9-1.1,3.6-1.3,5.1-0.9c1.5,0.3,2.6,1.2,3.4,2.4c1.5,2.3,1.2,5.8-1.8,8.3     c-3.3,2.7-7.2,3-10.5,1.8c-3.4-1.2-6.2-4-7.3-7.1c-1.4-4.8,0.7-9.4,4.4-12.7c-5-0.9-8.9-4-10.1-8.8c-0.4-1.6-0.4-3.3,0.1-5     c0.5-1.7,1.4-3.4,2.6-4.7c2.4-2.8,5.9-4.4,10.1-3.8c3.9,0.7,5.7,3.6,5.6,6.3c0,2.7-2.1,5.4-6.5,5.5c-1.6,0-2.9-0.4-3.8-1.1     c-1.1,2.3,3.8,5.3,6.8,5.2c2.8-0.1,6.4-1.8,8.5-3.5c1.9-1.5,3.6-3.7,4.8-5.9c0.6-1.1,1.1-2.3,1.4-3.4c0.4-1.1,0.6-2.2,0.6-3.2     c0.2-5.4-4.5-7.1-10.1-7.2C85.2,360.1,78.5,361.8,74.6,363.4z"></path>			</g>			<g>				<path class="st1" d="M91.8,295.8c2.3-0.1,4.2-0.4,6-0.9c3.5,2,5.7,4.5,6.7,7.2c1.1,2.7,1.2,5.5,0.2,8.4c-1,2.8-2.6,5.6-5,8.1     c-2.4,2.5-5.6,4.7-9.2,6.2c3.7,1.5,6.8,3.7,9.2,6.2c2.4,2.5,4,5.3,5,8.1c0.9,2.8,0.9,5.7-0.2,8.4c-1,2.7-3.2,5.1-6.7,7.1     c-1.6,0.9-3.4,1.7-5.6,2.4c-8.4,2.6-16.4,3-24.1,1.5c-3.7-0.7-7.4-1.9-11-3.5c-1.8-0.8-3.6-1.6-5.3-2.6c-1.7-1-3.3-2-5-3.1     c-3.3-2.2-6.4-4.7-9.4-7.4c-0.8-0.7-1.5-1.4-2.2-2c-0.7-0.7-1.4-1.4-2.1-2.1c-1.4-1.4-2.7-2.9-4-4.3c-1.1,2.4-2.7,4.4-4.8,5.9     c-2.1,1.5-4.5,2.5-7.5,2.6c-2.2,0.1-4.3-0.3-6.1-1.2c-1.8-0.9-3.5-2.1-4.9-3.7c-2.8-3.2-4.5-7.6-4.6-12.3     c0.1-4.8,1.9-9.3,4.8-12.5c1.4-1.6,3.2-2.8,5.1-3.6c2-0.8,4.1-1.2,6.3-1c2.9,0.2,5.2,1.2,7.1,2.7c2,1.5,3.5,3.5,4.5,5.7     c1.3-1.5,2.7-2.9,4-4.3c0.7-0.7,1.4-1.4,2.1-2.1c0.7-0.7,1.5-1.4,2.2-2c3-2.7,6.2-5.2,9.4-7.4c1.6-1.1,3.3-2.1,5-3.1     c1.7-1,3.5-1.8,5.3-2.6c3.6-1.6,7.2-2.7,11-3.5C75.1,294.5,83,296.2,91.8,295.8z M17.1,333.4c4.2-0.4,5.7-4.8,5.8-8.7     c-0.1-4.1-1.9-8.8-6.6-8.7c-4.3,0.1-7.2,4.3-7.3,8.7C9.2,329.5,12.5,333.9,17.1,333.4z M73.1,297.6c-4.4,0.6-8.3,1.7-12.1,3.3     c-3.8,1.6-7.4,3.7-10.8,6.2c-1.7,1.2-3.4,2.5-5,3.9c-1.6,1.4-3.1,2.8-4.6,4.3c-3,3-5.9,6.2-8.7,9.4c2.8,3.2,5.7,6.4,8.7,9.4     c1.5,1.5,3,3,4.6,4.3c1.6,1.4,3.3,2.7,5,3.9c3.4,2.4,7,4.5,10.8,6.2c3.8,1.6,7.8,2.8,12.1,3.3c4.8,0.6,11.8,0.5,17-1.2     c2.7-0.8,4.8-2,6.2-3.7c1.4-1.7,1.8-3.8,0.8-6.6c-1.3-3.5-5.3-7.6-9.4-9.5c-3.4-1.5-7.5-1.9-10.9-0.3c-2.4,0.8-3.7,2.4-3.9,4.9     l1.1,0.4c0.7-0.6,1.6-1.1,2.8-1.4c4.3-1.1,6.9,1,7.7,3.6c0.9,2.6-0.2,5.9-3.8,7.6c-3.8,1.7-7.7,1-10.7-1c-1.5-1-2.8-2.4-3.7-3.9     c-0.5-0.8-0.8-1.6-1.1-2.4c-0.3-0.8-0.4-1.6-0.4-2.5c-0.1-5,3-8.9,7.4-11.1c-4.4-2.2-7.5-6.1-7.4-11.1c0-0.8,0.1-1.7,0.4-2.5     c0.3-0.8,0.7-1.6,1.1-2.4c0.9-1.5,2.2-2.9,3.7-3.9c3-2.1,6.8-2.8,10.7-1c3.6,1.6,4.7,4.9,3.8,7.6c-0.8,2.6-3.4,4.7-7.7,3.6     c-1.6-0.4-2.7-1.2-3.4-2.1c-1.6,2,2.3,6.1,5.3,6.8c2.8,0.7,6.6-0.1,9.1-1.2c2.2-1,4.4-2.6,6.1-4.5c0.8-0.9,1.6-1.9,2.3-2.9     c0.6-1,1.1-2,1.4-3c0.8-2.6,0.1-4.6-1.4-6.2c-1.5-1.6-3.8-2.7-6.5-3.4C84.2,297.1,77.3,297,73.1,297.6z"></path>			</g>			<g>				<path class="st1" d="M107.1,236.8c2.2,0.5,4.2,0.7,6,0.7c2.9,2.9,4.4,5.8,4.7,8.7c0.1,0.7,0.1,1.4,0,2.1c0,0.3-0.1,0.7-0.1,1     c0,0.3-0.1,0.7-0.2,1c-0.3,1.4-0.9,2.7-1.7,3.9c-3.3,4.9-9.5,9-17.4,10.1c1.6,1.2,2.9,2.5,4.1,3.9c1.2,1.4,2.3,2.9,3.2,4.4     c0.9,1.5,1.5,3.1,2,4.6c0.5,1.5,0.6,3,0.8,4.5c0.2,3-0.5,5.7-2.3,8c-0.9,1.1-2,2.2-3.4,3.1c-1.4,0.9-3,1.6-5,2.1     c-1.8,0.5-3.7,0.8-6,0.9c-8.7,0.4-16.6-1.3-23.7-4.7c-3.4-1.7-6.7-3.8-9.8-6.2c-3.1-2.4-5.8-5.2-8.4-8.1c-2.6-3-5-6.2-7.3-9.6     c-2.1-3.3-4.1-6.8-5.9-10.3c-3.4,4-8.3,6.4-14.1,5.1c-4.3-1-7.5-3.8-9.4-7.6c-0.9-1.9-1.5-4-1.8-6.3c-0.1-1.1-0.1-2.3-0.1-3.4     c0.1-1.1,0.3-2.3,0.6-3.4c1.3-4.6,4.2-8.6,7.8-10.9c3.7-2.3,8.1-3,12.3-1.5c2.7,1,4.7,2.5,6.2,4.5c0.7,1,1.3,2,1.8,3.1     c0.5,1.1,0.9,2.3,1.1,3.6c3.2-2.2,6.8-4.1,10.4-6c3.6-1.8,7.2-3.4,10.9-4.7c7.6-2.5,15.3-3.8,22.9-3.3     C91.4,231.2,98.6,234.9,107.1,236.8z M25.2,253.8c2.1,0.4,3.8-0.5,5.1-1.8c0.6-0.7,1.2-1.5,1.6-2.4c0.5-0.9,0.9-1.8,1.2-2.7     c0.9-4,0.4-9-4.2-10.2c-4.2-1-8,2.4-9.2,6.6c-0.3,1.1-0.5,2.3-0.4,3.4c0.1,1.1,0.4,2.2,0.9,3.2     C21.3,251.9,22.9,253.4,25.2,253.8z M88.7,233.7c-4.3-0.6-8.5-0.5-12.7,0c-4.1,0.6-8,1.7-12,3.2c-2,0.7-3.9,1.6-5.8,2.5     c-1.9,0.9-3.8,1.9-5.6,3c-3.6,2.1-7.2,4.5-10.7,6.9c0.4,1,0.9,1.9,1.3,2.9c0.5,1,1,1.9,1.5,2.9c1,1.9,2,3.8,3.1,5.6     s2.2,3.6,3.3,5.4c1.2,1.7,2.4,3.4,3.7,5c5.4,6.5,11.8,11.8,19.7,15c4.4,1.8,11.2,3.5,16.7,3.2c5.5-0.3,9.9-2.3,9.4-8.2     c-0.1-0.9-0.4-2-0.7-3c-0.3-1-0.8-2.1-1.4-3.1c-1.2-2.1-2.8-4-4.5-5.5c-2.9-2.3-6.8-3.8-10.5-3.1c-2.5,0.1-4.2,1.4-5,3.7l1,0.6     c0.8-0.4,1.8-0.7,3.1-0.7c4.4,0.1,6.5,2.8,6.5,5.5c0.1,2.8-1.7,5.7-5.6,6.3c-4.1,0.7-7.7-1-10.1-3.7c-1.2-1.4-2.1-3-2.6-4.7     c-0.5-1.7-0.5-3.4-0.1-5c1.2-4.8,5.1-7.9,10.1-8.8c-3.7-3.2-5.8-7.9-4.4-12.7c1-3.1,3.9-5.9,7.3-7.1c3.4-1.2,7.3-0.9,10.6,1.8     c3.1,2.5,3.3,6,1.8,8.3c-0.7,1.2-1.9,2.1-3.4,2.4c-1.5,0.3-3.2,0.2-5.1-0.9c-1.4-0.8-2.3-1.8-2.7-2.9c-0.5,0.4-0.8,0.9-0.8,1.6     c0,0.7,0.3,1.5,0.6,2.3c0.8,1.6,2.1,3.2,3.5,3.9c2.5,1.4,6.4,1.6,9,1.2c1.2-0.2,2.4-0.6,3.6-1c0.6-0.2,1.2-0.5,1.7-0.8     c0.6-0.3,1.2-0.6,1.7-0.9c2.2-1.3,4.1-3,5.1-4.7c0.7-1.2,1-2.3,1-3.3c0-1-0.2-2-0.7-3c-1-1.9-3-3.5-5.4-5     C99.5,236.1,92.9,234.2,88.7,233.7z"></path>			</g>			<g>				<path class="st1" d="M137.2,183.7c2,1.1,3.9,1.8,5.6,2.3c1,1.8,1.7,3.4,2,5c0.4,1.6,0.5,3.2,0.3,4.6c-0.2,1.4-0.7,2.8-1.4,4     c-0.4,0.6-0.8,1.2-1.2,1.7c-0.5,0.5-1,1.1-1.5,1.6c-2.1,2-5,3.6-8.4,4.5c-1.7,0.4-3.4,0.8-5.3,0.9c-1.8,0.1-3.7,0.1-5.7-0.2     c2.4,3.1,4,6.5,4.8,9.9c0.9,3.4,1.1,6.7,0.4,9.6c-0.2,0.7-0.4,1.4-0.7,2.1c-0.3,0.7-0.5,1.3-0.9,1.9c-0.7,1.2-1.6,2.3-2.7,3.2     c-2.3,1.8-5.5,2.8-9.5,2.8c-1.8,0-3.8-0.2-6-0.7c-8.5-1.9-15.7-5.6-21.7-10.8c-1.4-1.3-2.8-2.6-4.1-4c-1.3-1.4-2.5-2.9-3.6-4.4     c-2.3-3.1-4.3-6.5-6-10.1c-0.9-1.8-1.7-3.6-2.5-5.5c-0.7-1.8-1.4-3.7-2-5.6c-1.2-3.8-2.2-7.7-3.1-11.6c-4.2,3-9.5,4.1-14.8,1.3     c-3.9-2-6.3-5.6-7.1-9.8c-0.9-4.2,0-8.9,2.3-12.9c1.2-2.1,2.7-3.9,4.5-5.4c1.8-1.4,3.8-2.5,5.9-3.1c4.2-1.3,8.5-0.8,12.2,1.7     c4.7,3.2,6.3,8.2,5.8,13.1c7.6-2.3,15.4-4.3,23.4-4.7c4-0.3,7.9-0.2,11.7,0.2c1.9,0.2,3.8,0.5,5.7,0.9c1.9,0.4,3.7,0.9,5.5,1.6     C123.5,174.3,129.5,179.7,137.2,183.7z M53.8,178.9c3.8,1.8,7.5-1.3,9.5-4.5c1-1.8,1.6-4,1.5-6c-0.1-2-0.9-3.8-2.9-4.9     c-1.9-1-4-1-5.9-0.2c-1.9,0.8-3.5,2.3-4.6,4.2C48.9,171.5,49.5,176.9,53.8,178.9z M120.3,176c-4-1.7-8-2.7-12.2-3.2     c-2.1-0.3-4.1-0.4-6.2-0.4c-2.1,0-4.2,0.1-6.2,0.3c-8.2,0.9-16.7,3.3-24.5,6.2c0.4,2.1,0.8,4.2,1.2,6.2c0.4,2.1,0.9,4.1,1.5,6.2     c1.2,4.1,2.5,8.1,4.2,11.9c1.6,3.8,3.8,7.4,6.3,10.7c2.5,3.3,5.5,6.3,8.9,8.9c3.8,2.9,9.9,6.3,15.3,7.5c2.7,0.6,5.2,0.7,7.2-0.1     c1-0.4,1.8-1,2.5-1.9c0.7-0.9,1.1-2,1.5-3.5c0.8-3.6-0.8-9.2-3.5-12.9c-2.1-3-5.6-5.4-9.3-5.7c-2.5-0.6-4.4,0.3-5.8,2.3l0.8,0.9     c0.9-0.2,1.9-0.2,3.1,0.1c4.2,1.2,5.6,4.4,4.9,7c-0.3,1.3-1.1,2.6-2.4,3.4c-1.2,0.9-2.8,1.4-4.8,1.2c-4.1-0.4-7.2-2.9-8.8-6.3     c-1.6-3.3-1.5-7.2,0-10.1c0.6-1.1,1.3-2,2.1-2.8c0.8-0.8,1.9-1.4,2.9-1.9c2.1-0.9,4.5-1.3,7-1.1c-1.4-2.1-2.3-4.3-2.5-6.7     c-0.3-2.3,0.3-4.6,1.6-6.7c0.9-1.4,2.2-2.6,3.7-3.5c0.8-0.4,1.6-0.8,2.4-1.1c0.9-0.3,1.8-0.4,2.7-0.5c3.6-0.3,7.4,1.1,9.8,4.5     c1.1,1.6,1.5,3.2,1.3,4.7c-0.2,1.5-0.8,2.8-1.8,3.8c-2,1.9-5.4,2.3-8.5-0.7c-1.2-1.1-1.7-2.4-1.9-3.5c-2.4,0.9-1.2,6.4,1,8.5     c2.1,2,5.7,3.2,8.4,3.5c4.9,0.5,10.8-1.2,13.7-4c4-3.7,2-8.2-1.9-12.2C130.1,181.1,124.2,177.6,120.3,176z"></path>			</g>			<g>				<path class="st1" d="M180.2,140.3c1.7,1.5,3.3,2.7,4.8,3.6c1.1,3.9,0.9,7.2-0.3,9.8c-0.6,1.3-1.4,2.5-2.3,3.5     c-1,1-2.1,1.9-3.4,2.5c-1.3,0.7-2.8,1.2-4.4,1.5c-1.5,0.4-3.2,0.6-4.9,0.6c-3.5,0.1-7.2-0.6-10.9-2.2c1.5,3.7,2.2,7.4,2.2,10.9     c0,1.7-0.2,3.4-0.6,4.9c-0.4,1.6-0.8,3.1-1.5,4.4c-0.7,1.3-1.5,2.5-2.5,3.4c-1,1-2.2,1.7-3.5,2.3c-2.6,1.2-5.9,1.4-9.8,0.3     c-1.8-0.5-3.6-1.2-5.6-2.3c-7.8-4.1-13.7-9.5-18.1-16c-2.1-3.2-3.9-6.6-5.3-10.2c-1.4-3.6-2.6-7.5-3.3-11.3     c-0.7-3.9-1.2-7.9-1.4-11.9c-0.1-2-0.2-4.1-0.2-6c0-2,0.1-3.9,0.2-5.9c-2.5,0.9-5.1,1.2-7.6,0.8c-2.5-0.4-4.9-1.4-7.1-3.5     c-3.2-2.9-4.7-7.1-4.3-11.3c0.3-4.2,2.2-8.6,5.5-11.9c3.5-3.3,8-5.3,12.2-5.5c4.3-0.2,8.5,1.4,11.4,4.8c1.8,2.2,2.8,4.5,3.1,6.9     c0.3,2.4,0,4.9-0.8,7.3c2-0.1,3.9-0.2,5.9-0.2c2,0,4,0.1,6,0.2c4,0.2,8,0.7,11.9,1.4c3.8,0.7,7.7,1.9,11.3,3.3     c3.6,1.4,7,3.2,10.2,5.3C169.3,127.6,173.7,134.4,180.2,140.3z M100.8,114c3.3,2.7,7.5,0.6,10.3-2c2.9-3,4.9-7.6,1.5-10.8     c-3.1-3-8.1-2-11.3,1.1C98,105.7,97.2,111.1,100.8,114z M165.7,128.4c-3.4-2.6-7.2-4.8-11-6.3c-3.8-1.5-7.8-2.6-12-3.3     c-2.1-0.3-4.2-0.6-6.3-0.8c-2.1-0.2-4.2-0.2-6.3-0.2c-4.2,0-8.5,0.2-12.8,0.6c-0.3,4.3-0.6,8.6-0.6,12.8c0,2.1,0,4.2,0.2,6.3     c0.2,2.1,0.4,4.2,0.8,6.3c0.7,4.1,1.7,8.1,3.3,12c1.5,3.8,3.7,7.5,6.3,11c2.9,3.8,8,8.6,12.9,11.2c2.5,1.3,4.9,2,6.9,1.7     c2.1-0.2,4-1.4,5.3-4.1c0.8-1.7,1.2-4,1.2-6.4c0-2.4-0.4-4.9-1.2-7c-1.3-3.4-4-6.7-7.5-7.9c-2.2-1.1-4.3-0.9-6.3,0.7l0.5,1     c0.9,0.1,1.9,0.3,3,1c1.9,1.1,2.9,2.5,3.3,4c0.2,0.7,0.3,1.4,0.2,2.1c-0.1,0.7-0.3,1.4-0.6,2c-1.3,2.5-4.4,4-8.1,2.6     c-3.9-1.5-6.2-4.7-6.8-8.3c-0.3-1.8-0.3-3.6,0.2-5.4c0.4-1.7,1.2-3.4,2.3-4.5c3.5-3.6,8.5-4.2,13.1-2.6c-1.6-4.6-1-9.7,2.6-13.1     c1.1-1.2,2.8-1.9,4.5-2.3c1.7-0.4,3.6-0.5,5.4-0.2c3.6,0.6,6.8,2.9,8.3,6.8c1.4,3.7-0.1,6.8-2.6,8.1c-0.6,0.3-1.3,0.5-2,0.6     c-0.7,0.1-1.4,0-2.1-0.2c-1.4-0.4-2.8-1.5-4-3.3c-0.8-1.4-1.1-2.7-0.9-3.9c-2.6,0.3-2.7,6-1.1,8.5c1.5,2.4,4.7,4.6,7.2,5.6     c2.3,0.9,5,1.2,7.5,1.1c2.6-0.1,5-0.5,6.8-1.5c2.4-1.3,3.3-3.2,3.4-5.3c0.1-2.1-0.8-4.5-2.2-7     C173.9,135.9,169.1,130.9,165.7,128.4z"></path>			</g>			<g>				<path class="st1" d="M155.3,67.4c3.2,5,8.4,6.8,13.5,6.3c-2.3,7.6-4.3,15.4-4.7,23.4c-0.3,4-0.2,7.9,0.2,11.7     c0.2,1.9,0.5,3.8,0.9,5.7c0.4,1.9,0.9,3.7,1.6,5.6c2.6,7.5,7,14.2,13.4,20.1c1.7,1.5,3.3,2.7,4.8,3.6c1.8,1,3.4,1.7,5,2     c1.6,0.4,3.2,0.5,4.6,0.3c1.4-0.2,2.8-0.7,4-1.4c0.6-0.3,1.2-0.8,1.7-1.2c0.5-0.5,1.1-1,1.6-1.5c2-2.1,3.6-5,4.5-8.4     c0.4-1.7,0.8-3.4,0.9-5.3c0.1-1.8,0.1-3.7-0.2-5.7L198,107c-2.1-1.4-4.3-2.3-6.7-2.5c-2.3-0.3-4.6,0.3-6.7,1.6     c-1.4,0.9-2.6,2.2-3.5,3.7c-0.4,0.8-0.8,1.6-1.1,2.4c-0.3,0.9-0.4,1.8-0.5,2.7c-0.3,3.6,1.1,7.4,4.5,9.8     c1.6,1.1,3.2,1.5,4.7,1.3c1.5-0.2,2.8-0.8,3.8-1.8c1.9-2,2.3-5.4-0.7-8.5c-0.9-0.9-1.8-1.4-2.6-1.7l-0.3-1.2     c2.2-1.1,4.3-0.8,6.2,0.9c1.5,1,2.7,2.5,3.6,4.2c0.9,1.7,1.4,3.5,1.6,5.4c0.5,4.5-1,10.2-3.5,12.9c-3.8,4.5-8.3,2.9-12.4-0.8     c-4.1-3.7-7.7-9.7-9.6-14.1c-1.7-4-2.7-8-3.2-12.2c-0.3-2.1-0.4-4.1-0.4-6.2c0-2.1,0.1-4.2,0.3-6.2c0.9-8.2,3.3-16.7,6.2-24.5     l-4.5-7.8c-1.7,0.9-3.7,1.5-5.6,1.5c-1.9,0-3.6-0.6-4.9-2.3c-1.4-1.9-1.5-4.1-0.8-6.2c0.7-2,2.3-3.8,4.4-5l-4-7     c-2,1.2-3.8,2.6-5.2,4.3c-1.4,1.7-2.5,3.7-3.1,5.7C152.7,59.4,152.9,63.7,155.3,67.4z"></path>			</g>		</g>		<g>			<g>				<path class="st1" d="M236.5,114.1c-1.3-1.3-2.5-2.9-3.8-4.8c-4.7-7.3-7.2-15.1-7.7-22.9c-1.3-1.4-2.6-2.8-4-4.1     c-1.4-1.3-2.9-2.5-4.4-3.6c-3.1-2.3-6.5-4.3-10.1-6c-1.8-0.9-3.6-1.7-5.5-2.5c-1.8-0.7-3.7-1.4-5.6-2c-3.8-1.2-7.7-2.2-11.6-3.1     c2.9-4,4-9.1,1.5-14.2c-1.9-4.1-5.5-6.7-9.8-7.6c-4.3-1-9-0.2-13.2,2.2l4,7c3.8-2.2,8.9-2,11.1,1.8c2.4,4-0.7,8-4.2,10.2     l4.5,7.8c2.1,0.4,4.2,0.8,6.2,1.2c2.1,0.4,4.1,0.9,6.2,1.5c4.1,1.2,8.1,2.5,11.9,4.2c3.8,1.6,7.4,3.8,10.7,6.3     c3.3,2.5,6.3,5.5,8.9,8.9c2.6,3.4,6,9.4,7.3,14.8c1.4,5.5,0.9,10.3-4.4,11.5c-3.9,1.1-9.9-0.5-13.9-3.3     c-2.2-1.5-4.7-4.5-5.5-7.2c-0.9-3,0.7-8.3,3.3-7.9c-0.4,1.1-0.6,2.4-0.1,4c1.2,4.2,4.4,5.6,7,4.9c1.3-0.3,2.6-1.1,3.4-2.4     c0.9-1.2,1.4-2.8,1.2-4.8c-0.4-4.1-3-7.2-6.3-8.8c-3.3-1.6-7.2-1.5-10.1,0c-1.1,0.6-2,1.3-2.8,2.1c-0.8,0.8-1.4,1.9-1.9,2.9     c-0.9,2.1-1.3,4.5-1.1,7l9.1,15.7l0,0c3.1,2.4,6.5,4,9.9,4.8c3.4,0.9,6.7,1.1,9.6,0.4c0.7-0.2,1.4-0.4,2.1-0.7     c0.7-0.3,1.3-0.5,1.9-0.9c1.2-0.7,2.3-1.6,3.2-2.7C235.5,121.3,236.5,118.1,236.5,114.1z"></path>			</g>			<g>				<path class="st1" d="M291.6,93.2c0.7,2.2,1.5,4,2.4,5.6c-0.5,2-1.2,3.6-2.1,5c-0.9,1.4-1.9,2.4-3.1,3.4c-2.3,1.8-5,2.5-8,2.3     c-1.5-0.1-3-0.3-4.5-0.8c-1.5-0.5-3.1-1.1-4.6-2s-3-1.9-4.4-3.2c-1.4-1.2-2.7-2.6-3.9-4.1c-1,7.9-5.2,14.1-10.1,17.4     c-1.2,0.8-2.6,1.4-3.9,1.7c-0.3,0.1-0.7,0.1-1,0.2c-0.3,0.1-0.7,0.1-1,0.1c-0.7,0.1-1.4,0.1-2.1,0c-2.8-0.3-5.8-1.8-8.7-4.7     c-1.3-1.3-2.5-2.9-3.8-4.8c-4.7-7.3-7.2-15.1-7.7-22.9c-0.5-7.6,0.8-15.3,3.3-22.9c1.3-3.7,2.9-7.4,4.7-10.9     c1.8-3.6,3.8-7.1,6-10.4c-1.3-0.2-2.5-0.6-3.7-1.2c-1.2-0.5-2.3-1.1-3.2-1.9c-2-1.6-3.6-3.7-4.5-6.6c-1.3-4.2-0.5-8.4,1.9-12     c2.4-3.5,6.3-6.2,10.7-7.5c1.2-0.3,2.3-0.6,3.5-0.6c1.2-0.1,2.3,0,3.5,0.1c2.3,0.3,4.5,0.9,6.4,1.9c3.8,2,6.6,5.4,7.4,9.8     c1,5.6-1.4,10.2-5.2,13.5c3.5,1.8,7,3.8,10.3,5.9c3.4,2.3,6.6,4.7,9.6,7.3c3,2.6,5.7,5.3,8.1,8.4c2.4,3.1,4.5,6.3,6.2,9.8     C288.5,76.8,288.9,84.8,291.6,93.2z M236,30.7c1.5,4,6.2,4.3,9.9,3.5c1-0.3,2-0.8,2.9-1.3c0.9-0.5,1.8-1.1,2.4-1.8     c1.4-1.4,2.1-3.3,1.4-5.5c-0.6-2.1-2.1-3.5-4-4.4c-0.9-0.4-2-0.6-3.1-0.7c-1.1-0.1-2.2,0.1-3.2,0.4     C237.8,22.1,234.3,26.3,236,30.7z M285.1,75.6c-3.3-8-8.5-14.4-15-19.7c-1.6-1.4-3.3-2.6-5-3.7c-1.7-1.2-3.5-2.3-5.4-3.3     s-3.7-2.1-5.6-3.1c-0.9-0.5-1.9-1-2.9-1.5c-1-0.4-1.9-0.9-2.9-1.3c-2.4,3.5-4.8,7.1-6.9,10.7c-1.1,1.8-2.1,3.7-3,5.6     c-0.9,1.9-1.7,3.9-2.5,5.8c-1.5,3.9-2.6,7.9-3.2,12c-0.6,4.2-0.6,8.4,0,12.7c0.6,4.7,2.6,11.5,5.6,16.1c1.5,2.3,3.2,4.2,5.2,5     c1.9,0.8,4.1,0.7,6.6-0.9c1.6-1,3-2.8,4.2-4.9c1.2-2.1,2.1-4.4,2.5-6.6c0.6-3.6-0.1-7.8-2.5-10.6c-1.4-2.1-3.3-3-5.8-2.6     l-0.1,1.2c0.8,0.5,1.5,1.2,2.1,2.3c1.1,1.9,1.3,3.6,0.9,5.1c-0.3,1.5-1.2,2.6-2.4,3.4c-2.3,1.5-5.8,1.2-8.3-1.8     c-2.7-3.3-3-7.2-1.8-10.5c1.2-3.4,4-6.2,7.1-7.3c4.8-1.4,9.4,0.7,12.7,4.4c0.9-5,4-8.9,8.8-10.1c1.6-0.4,3.3-0.4,5,0.1     c1.7,0.5,3.4,1.4,4.7,2.6c2.8,2.4,4.4,5.9,3.8,10.1c-0.7,3.9-3.6,5.7-6.3,5.6c-2.7,0-5.4-2.1-5.5-6.5c0-1.6,0.4-2.9,1.1-3.8     c-2.3-1.1-5.3,3.8-5.2,6.8c0.1,2.8,1.8,6.4,3.5,8.5c1.5,1.9,3.7,3.6,5.9,4.8c1.1,0.6,2.3,1.1,3.4,1.4c1.1,0.4,2.2,0.6,3.2,0.6     c5.4,0.2,7.1-4.5,7.2-10.1C288.4,86.2,286.7,79.5,285.1,75.6z"></path>			</g>			<g>				<path class="st1" d="M352.7,92.8c0.1,2.3,0.4,4.2,0.9,6c-2,3.5-4.5,5.7-7.1,6.7c-2.7,1.1-5.5,1.2-8.4,0.2c-2.8-1-5.6-2.6-8.1-5     c-2.5-2.4-4.7-5.6-6.2-9.2c-1.5,3.7-3.7,6.8-6.2,9.2c-2.5,2.4-5.3,4-8.1,5c-2.8,0.9-5.7,0.9-8.4-0.2c-2.7-1-5.1-3.2-7.1-6.7     c-0.9-1.6-1.7-3.4-2.4-5.6c-2.6-8.4-3-16.4-1.5-24.1c0.7-3.7,1.9-7.4,3.5-11c0.8-1.8,1.6-3.6,2.6-5.3c1-1.7,2-3.3,3.1-5     c2.2-3.3,4.7-6.4,7.4-9.4c0.7-0.8,1.4-1.5,2-2.2c0.7-0.7,1.4-1.4,2.1-2.1c1.4-1.4,2.9-2.7,4.3-4c-2.4-1.1-4.4-2.7-5.9-4.8     c-1.5-2.1-2.5-4.5-2.6-7.5c-0.1-2.2,0.3-4.3,1.2-6.1c0.9-1.8,2.1-3.5,3.7-4.9c3.2-2.8,7.6-4.5,12.3-4.6     c4.8,0.1,9.3,1.9,12.5,4.8c1.6,1.4,2.8,3.2,3.6,5.1c0.8,2,1.2,4.1,1,6.3c-0.2,2.9-1.2,5.2-2.7,7.1c-1.5,2-3.5,3.5-5.7,4.5     c1.5,1.3,2.9,2.7,4.3,4c0.7,0.7,1.4,1.4,2.1,2.1c0.7,0.7,1.4,1.5,2,2.2c2.7,3,5.2,6.2,7.4,9.4c1.1,1.6,2.1,3.3,3.1,5     c1,1.7,1.8,3.5,2.6,5.3c1.6,3.6,2.7,7.2,3.5,11C354,76.1,352.3,84,352.7,92.8z M315.1,18.1c0.4,4.2,4.8,5.7,8.7,5.8     c4.1-0.1,8.8-1.9,8.7-6.6c-0.1-4.3-4.3-7.2-8.7-7.3C319,10.2,314.6,13.5,315.1,18.1z M350.9,74.1c-0.6-4.4-1.7-8.3-3.3-12.1     c-1.6-3.8-3.7-7.4-6.2-10.8c-1.2-1.7-2.5-3.4-3.9-5c-1.4-1.6-2.8-3.1-4.3-4.6c-3-3-6.2-5.9-9.4-8.7c-3.2,2.8-6.4,5.7-9.4,8.7     c-1.5,1.5-3,3-4.3,4.6c-1.4,1.6-2.7,3.3-3.9,5c-2.4,3.4-4.5,7-6.2,10.8c-1.6,3.8-2.8,7.8-3.3,12.1c-0.6,4.8-0.5,11.8,1.2,17     c0.8,2.7,2,4.8,3.7,6.2c1.7,1.4,3.8,1.8,6.6,0.8c3.5-1.3,7.6-5.3,9.5-9.4c1.5-3.4,1.9-7.5,0.3-10.9c-0.8-2.4-2.4-3.7-4.9-3.9     l-0.4,1.1c0.6,0.7,1.1,1.6,1.4,2.8c1.1,4.3-1,6.9-3.6,7.7c-2.6,0.9-5.9-0.2-7.6-3.8c-1.7-3.8-1-7.7,1-10.7     c1-1.5,2.4-2.8,3.9-3.7c0.8-0.5,1.6-0.8,2.4-1.1c0.8-0.3,1.6-0.4,2.5-0.4c5-0.1,8.9,3,11.1,7.4c2.2-4.4,6.1-7.5,11.1-7.4     c0.8,0,1.7,0.1,2.5,0.4c0.8,0.3,1.6,0.7,2.4,1.1c1.5,0.9,2.9,2.2,3.9,3.7c2.1,3,2.8,6.8,1,10.7c-1.6,3.6-4.9,4.7-7.6,3.8     c-2.6-0.8-4.7-3.4-3.6-7.7c0.4-1.6,1.2-2.7,2.1-3.4c-2-1.6-6.1,2.3-6.8,5.3c-0.7,2.8,0.1,6.6,1.2,9.1c1,2.2,2.6,4.4,4.5,6.1     c0.9,0.8,1.9,1.6,2.9,2.3c1,0.6,2,1.1,3,1.4c2.6,0.8,4.6,0.1,6.2-1.4c1.6-1.5,2.7-3.8,3.4-6.5C351.4,85.2,351.5,78.3,350.9,74.1     z"></path>			</g>			<g>				<path class="st1" d="M411.7,108.1c-0.5,2.2-0.7,4.2-0.7,6c-2.9,2.9-5.8,4.4-8.7,4.7c-0.7,0.1-1.4,0.1-2.1,0     c-0.3,0-0.7-0.1-1-0.1c-0.3,0-0.7-0.1-1-0.2c-1.4-0.3-2.7-0.9-3.9-1.7c-4.9-3.3-9-9.5-10.1-17.4c-1.2,1.6-2.5,2.9-3.9,4.1     c-1.4,1.2-2.9,2.3-4.4,3.2c-1.5,0.9-3.1,1.5-4.6,2c-1.5,0.5-3,0.6-4.5,0.8c-3,0.2-5.7-0.5-8-2.3c-1.1-0.9-2.2-2-3.1-3.4     c-0.9-1.4-1.6-3-2.1-5c-0.5-1.8-0.8-3.7-0.9-6c-0.4-8.7,1.3-16.6,4.7-23.7c1.7-3.4,3.8-6.7,6.2-9.8c2.4-3.1,5.2-5.8,8.1-8.4     c3-2.6,6.2-5,9.6-7.3c3.3-2.1,6.8-4.1,10.3-5.9c-4-3.4-6.4-8.3-5.1-14.1c1-4.3,3.8-7.5,7.6-9.4c1.9-0.9,4-1.5,6.3-1.8     c1.1-0.1,2.3-0.1,3.4-0.1c1.1,0.1,2.3,0.3,3.4,0.6c4.6,1.3,8.6,4.2,10.9,7.8c2.3,3.7,3,8.1,1.5,12.3c-1,2.7-2.5,4.7-4.5,6.2     c-1,0.7-2,1.3-3.1,1.8c-1.1,0.5-2.3,0.9-3.6,1.1c2.2,3.2,4.1,6.8,6,10.4c1.8,3.6,3.4,7.2,4.7,10.9c2.5,7.6,3.8,15.3,3.3,22.9     C417.3,92.4,413.6,99.6,411.7,108.1z M394.7,26.2c-0.4,2.1,0.5,3.8,1.8,5.1c0.7,0.6,1.5,1.2,2.4,1.6c0.9,0.5,1.8,0.9,2.7,1.2     c4,0.9,9,0.4,10.2-4.2c1-4.2-2.4-8-6.6-9.2c-1.1-0.3-2.3-0.5-3.4-0.4c-1.1,0.1-2.2,0.4-3.2,0.9     C396.6,22.3,395.1,23.9,394.7,26.2z M414.8,89.7c0.6-4.3,0.5-8.5,0-12.7c-0.6-4.1-1.7-8-3.2-12c-0.7-2-1.6-3.9-2.5-5.8     c-0.9-1.9-1.9-3.8-3-5.6c-2.1-3.6-4.5-7.2-6.9-10.7c-1,0.4-1.9,0.9-2.9,1.3c-1,0.5-1.9,1-2.9,1.5c-1.9,1-3.8,2-5.6,3.1     s-3.6,2.2-5.4,3.3c-1.7,1.2-3.4,2.4-5,3.7c-6.5,5.4-11.8,11.8-15,19.7c-1.8,4.4-3.5,11.2-3.2,16.7c0.3,5.5,2.3,9.9,8.2,9.4     c0.9-0.1,2-0.4,3-0.7c1-0.3,2.1-0.8,3.1-1.4c2.1-1.2,4-2.8,5.5-4.5c2.3-2.9,3.8-6.8,3.1-10.5c-0.1-2.5-1.4-4.2-3.7-5l-0.6,1     c0.4,0.8,0.7,1.8,0.7,3.1c-0.1,4.4-2.8,6.5-5.5,6.5c-2.8,0.1-5.7-1.7-6.3-5.6c-0.7-4.1,1-7.7,3.7-10.1c1.4-1.2,3-2.1,4.7-2.6     c1.7-0.5,3.4-0.5,5-0.1c4.8,1.2,7.9,5.1,8.8,10.1c3.2-3.7,7.9-5.8,12.7-4.4c3.1,1,5.9,3.9,7.1,7.3c1.2,3.4,0.9,7.3-1.8,10.6     c-2.5,3.1-6,3.3-8.3,1.8c-1.2-0.7-2.1-1.9-2.4-3.4c-0.3-1.5-0.2-3.2,0.9-5.1c0.8-1.4,1.8-2.3,2.9-2.7c-0.4-0.5-0.9-0.8-1.6-0.8     c-0.7,0-1.5,0.3-2.3,0.6c-1.6,0.8-3.2,2.1-3.9,3.5c-1.4,2.5-1.6,6.4-1.2,9c0.2,1.2,0.6,2.4,1,3.6c0.2,0.6,0.5,1.2,0.8,1.7     c0.3,0.6,0.6,1.2,0.9,1.7c1.3,2.2,3,4.1,4.7,5.1c1.2,0.7,2.3,1,3.3,1c1,0,2-0.2,3-0.7c1.9-1,3.5-3,5-5.4     C412.4,100.5,414.3,93.9,414.8,89.7z"></path>			</g>			<g>				<path class="st1" d="M464.8,138.2c-1.1,2-1.8,3.9-2.3,5.6c-1.8,1-3.4,1.7-5,2c-1.6,0.4-3.2,0.5-4.6,0.3c-1.4-0.2-2.8-0.7-4-1.4     c-0.6-0.4-1.2-0.8-1.7-1.2c-0.5-0.5-1.1-1-1.6-1.5c-2-2.1-3.6-5-4.5-8.4c-0.4-1.7-0.8-3.4-0.9-5.3c-0.1-1.8-0.1-3.7,0.2-5.7     c-3.1,2.4-6.5,4-9.9,4.8c-3.4,0.9-6.7,1.1-9.6,0.4c-0.7-0.2-1.4-0.4-2.1-0.7c-0.7-0.3-1.3-0.5-1.9-0.9c-1.2-0.7-2.3-1.6-3.2-2.7     c-1.8-2.3-2.8-5.5-2.8-9.5c0-1.8,0.2-3.8,0.7-6c1.9-8.5,5.6-15.7,10.8-21.7c1.3-1.4,2.6-2.8,4-4.1c1.4-1.3,2.9-2.5,4.5-3.6     c3.1-2.3,6.5-4.3,10.1-6c1.8-0.9,3.6-1.7,5.5-2.5c1.8-0.7,3.7-1.4,5.6-2c3.8-1.2,7.7-2.2,11.6-3.1c-3-4.2-4.1-9.5-1.3-14.8     c2-3.9,5.6-6.3,9.8-7.1c4.2-0.9,8.9,0,12.9,2.3c2.1,1.2,3.9,2.7,5.4,4.5c1.4,1.8,2.5,3.8,3.1,5.9c1.3,4.1,0.8,8.5-1.7,12.2     c-3.2,4.7-8.2,6.3-13.1,5.8c2.3,7.6,4.3,15.4,4.7,23.4c0.3,4,0.2,7.9-0.2,11.7c-0.2,1.9-0.5,3.8-0.9,5.7     c-0.4,1.9-0.9,3.7-1.6,5.5C474.2,124.5,468.8,130.5,464.8,138.2z M469.6,54.8c-1.8,3.8,1.3,7.5,4.5,9.5c1.8,1,4,1.6,6,1.5     c2-0.1,3.8-0.9,4.9-2.9c1-1.9,1-4,0.2-5.9c-0.8-1.9-2.3-3.5-4.2-4.6C477,49.9,471.6,50.5,469.6,54.8z M472.5,121.3     c1.7-4,2.7-8,3.2-12.2c0.3-2.1,0.4-4.1,0.4-6.2c0-2.1-0.1-4.2-0.3-6.2c-0.9-8.2-3.3-16.7-6.2-24.5c-2.1,0.4-4.2,0.8-6.2,1.2     c-2.1,0.4-4.1,0.9-6.2,1.5c-4.1,1.2-8.1,2.5-11.9,4.2c-3.8,1.6-7.4,3.8-10.7,6.3c-3.3,2.5-6.3,5.5-8.9,8.9     c-2.9,3.8-6.3,9.9-7.5,15.3c-0.6,2.7-0.7,5.2,0.1,7.2c0.4,1,1,1.8,1.9,2.5c0.9,0.7,2,1.1,3.5,1.5c3.6,0.8,9.2-0.8,12.9-3.5     c3-2.1,5.4-5.6,5.7-9.3c0.6-2.5-0.3-4.4-2.3-5.8l-0.9,0.8c0.2,0.9,0.2,1.9-0.1,3.1c-1.2,4.2-4.4,5.6-7,4.9     c-1.3-0.3-2.6-1.1-3.4-2.4c-0.9-1.2-1.4-2.8-1.2-4.8c0.4-4.1,2.9-7.2,6.3-8.8c3.3-1.6,7.2-1.5,10.1,0c1.1,0.6,2,1.3,2.8,2.1     c0.8,0.8,1.4,1.9,1.9,2.9c0.9,2.1,1.3,4.5,1.1,7c2.1-1.4,4.3-2.3,6.7-2.5c2.3-0.3,4.6,0.3,6.7,1.6c1.4,0.9,2.6,2.2,3.5,3.7     c0.4,0.8,0.8,1.6,1.1,2.4c0.3,0.9,0.4,1.8,0.5,2.7c0.3,3.6-1.1,7.4-4.5,9.8c-1.6,1.1-3.2,1.5-4.7,1.3c-1.5-0.2-2.8-0.8-3.8-1.8     c-1.9-2-2.3-5.4,0.7-8.5c1.1-1.2,2.4-1.7,3.5-1.9c-0.9-2.4-6.4-1.2-8.5,1c-2,2.1-3.2,5.7-3.5,8.4c-0.5,4.9,1.2,10.8,4,13.7     c3.7,4,8.2,2,12.2-1.9C467.4,131.1,470.9,125.2,472.5,121.3z"></path>			</g>			<g>				<path class="st1" d="M508.2,181.2c-1.5,1.7-2.7,3.3-3.6,4.8c-3.9,1.1-7.2,0.9-9.8-0.3c-1.3-0.6-2.5-1.4-3.5-2.3     c-1-1-1.9-2.1-2.5-3.4c-0.7-1.3-1.2-2.8-1.5-4.4c-0.4-1.5-0.6-3.2-0.6-4.9c0-3.5,0.6-7.2,2.2-10.9c-3.7,1.5-7.4,2.2-10.9,2.2     c-1.7,0-3.4-0.2-4.9-0.6c-1.6-0.4-3.1-0.8-4.4-1.5c-1.3-0.7-2.5-1.5-3.4-2.5c-1-1-1.7-2.2-2.3-3.5c-1.2-2.6-1.4-5.9-0.3-9.8     c0.5-1.8,1.2-3.6,2.3-5.6c4.1-7.8,9.5-13.7,16-18.1c3.2-2.1,6.6-3.9,10.2-5.3c3.6-1.4,7.5-2.6,11.3-3.3     c3.9-0.7,7.9-1.2,11.9-1.4c2-0.1,4.1-0.2,6-0.2c2,0,3.9,0.1,5.9,0.2c-0.9-2.5-1.2-5.1-0.8-7.6c0.4-2.5,1.4-4.9,3.5-7.1     c2.9-3.2,7.1-4.7,11.3-4.3c4.2,0.3,8.6,2.2,11.9,5.5c3.3,3.5,5.3,8,5.5,12.2c0.2,4.3-1.4,8.5-4.8,11.4c-2.2,1.8-4.5,2.8-6.9,3.1     c-2.4,0.3-4.9,0-7.3-0.8c0.1,2,0.2,3.9,0.2,5.9c0,2-0.1,4-0.2,6c-0.2,4-0.7,8-1.4,11.9c-0.7,3.8-1.9,7.7-3.3,11.3     c-1.4,3.6-3.2,7-5.3,10.2C520.9,170.3,514.1,174.7,508.2,181.2z M534.5,101.8c-2.7,3.3-0.6,7.5,2,10.3c3,2.9,7.6,4.9,10.8,1.5     c3-3.1,2-8.1-1.1-11.3C542.8,99,537.4,98.2,534.5,101.8z M520.1,166.7c2.6-3.4,4.8-7.2,6.3-11c1.5-3.8,2.6-7.8,3.3-12     c0.3-2.1,0.6-4.2,0.8-6.3c0.2-2.1,0.2-4.2,0.2-6.3c0-4.2-0.2-8.5-0.6-12.8c-4.3-0.3-8.6-0.6-12.8-0.6c-2.1,0-4.2,0-6.3,0.2     c-2.1,0.2-4.2,0.4-6.3,0.8c-4.1,0.7-8.1,1.7-12,3.3c-3.8,1.5-7.5,3.7-11,6.3c-3.8,2.9-8.6,8-11.2,12.9c-1.3,2.5-2,4.9-1.7,6.9     c0.2,2.1,1.4,4,4.1,5.3c1.7,0.8,4,1.2,6.4,1.2c2.4,0,4.9-0.4,7-1.2c3.4-1.3,6.7-4,7.9-7.5c1.1-2.2,0.9-4.3-0.7-6.3l-1,0.5     c-0.1,0.9-0.3,1.9-1,3c-1.1,1.9-2.5,2.9-4,3.3c-0.7,0.2-1.4,0.3-2.1,0.2c-0.7-0.1-1.4-0.3-2-0.6c-2.5-1.3-4-4.4-2.6-8.1     c1.5-3.9,4.7-6.2,8.3-6.8c1.8-0.3,3.6-0.3,5.4,0.2c1.7,0.4,3.4,1.2,4.5,2.3c3.6,3.5,4.2,8.5,2.6,13.1c4.6-1.6,9.7-1,13.1,2.6     c1.2,1.1,1.9,2.8,2.3,4.5c0.4,1.7,0.5,3.6,0.2,5.4c-0.6,3.6-2.9,6.8-6.8,8.3c-3.7,1.4-6.8-0.1-8.1-2.6c-0.3-0.6-0.5-1.3-0.6-2     c-0.1-0.7,0-1.4,0.2-2.1c0.4-1.4,1.5-2.8,3.3-4c1.4-0.8,2.7-1.1,3.9-0.9c-0.3-2.6-6-2.7-8.5-1.1c-2.4,1.5-4.6,4.7-5.6,7.2     c-0.9,2.3-1.2,5-1.1,7.5c0.1,2.6,0.5,5,1.5,6.8c1.3,2.4,3.2,3.3,5.3,3.4c2.1,0.1,4.5-0.8,7-2.2     C512.6,174.9,517.6,170.1,520.1,166.7z"></path>			</g>			<g>				<path class="st1" d="M539.2,233.7c-1.9,1.2-3.5,2.5-4.8,3.8c-4,0-7.2-1-9.5-2.8c-1.1-0.9-2-1.9-2.7-3.2     c-0.3-0.6-0.6-1.3-0.9-1.9c-0.3-0.7-0.5-1.3-0.7-2.1c-0.7-2.9-0.5-6.2,0.4-9.6c0.8-3.3,2.4-6.8,4.8-9.9     c-1.9,0.3-3.9,0.3-5.7,0.2c-1.8-0.1-3.6-0.5-5.3-0.9c-3.4-0.9-6.3-2.4-8.4-4.5c-0.5-0.5-1-1-1.5-1.6c-0.5-0.5-0.9-1.1-1.2-1.7     c-0.7-1.2-1.2-2.5-1.4-4c-0.2-1.4-0.1-3,0.3-4.6c0.3-1.6,1-3.3,2-5c0.9-1.6,2.1-3.2,3.6-4.8c5.9-6.4,12.7-10.8,20.1-13.4     c1.8-0.6,3.7-1.2,5.5-1.6c1.9-0.4,3.8-0.7,5.7-0.9c3.8-0.4,7.7-0.5,11.7-0.2c8,0.5,15.8,2.4,23.4,4.7     c-0.5-5.2,1.3-10.3,6.3-13.5c3.7-2.3,8-2.6,12-1.3c2,0.7,4,1.7,5.7,3.1c1.7,1.4,3.2,3.2,4.3,5.2c2.4,4.2,3.2,8.9,2.2,13.2     c-1,4.2-3.6,7.8-7.6,9.8c-5.1,2.4-10.2,1.3-14.2-1.5c-0.9,3.9-1.9,7.8-3.1,11.6c-0.6,1.9-1.3,3.8-2,5.6     c-0.7,1.9-1.6,3.7-2.5,5.5c-1.8,3.6-3.8,7-6,10.1c-1.1,1.6-2.3,3-3.6,4.4c-1.3,1.4-2.7,2.8-4.1,4     C554.3,226.5,546.6,229.1,539.2,233.7z M585,163.9c-1.7,1.2-2.3,3-2.3,4.9c0,1.9,0.6,3.9,1.5,5.6c2.2,3.5,6.2,6.6,10.2,4.2     c3.8-2.3,4-7.3,1.8-11.1c-1.2-2-3-3.6-5-4.4C589.2,162.3,586.9,162.5,585,163.9z M554.4,222.9c3.4-2.6,6.4-5.6,8.9-8.9     c2.5-3.3,4.7-7,6.3-10.7c1.7-3.8,3-7.8,4.2-11.9c0.6-2.1,1.1-4.1,1.5-6.2c0.4-2.1,0.8-4.2,1.2-6.2c-7.8-3-16.3-5.3-24.5-6.2     c-2-0.2-4.2-0.3-6.2-0.3c-2.1,0-4.2,0.2-6.2,0.4c-4.1,0.5-8.2,1.6-12.2,3.2c-4.4,1.8-10.4,5.4-14.1,9.6     c-3.7,4.1-5.3,8.6-0.8,12.4c2.7,2.5,8.3,3.9,12.9,3.5c1.9-0.2,3.7-0.7,5.4-1.6c1.7-0.9,3.2-2.1,4.2-3.6c1.7-1.9,2-3.9,0.9-6.2     l-1.2,0.3c-0.3,0.9-0.8,1.8-1.7,2.6c-3.1,3-6.5,2.6-8.5,0.7c-1-0.9-1.6-2.3-1.8-3.8c-0.2-1.5,0.2-3.1,1.3-4.7     c2.4-3.4,6.1-4.7,9.8-4.5c0.9,0.1,1.8,0.2,2.7,0.5c0.9,0.3,1.7,0.6,2.4,1.1c1.5,0.9,2.8,2.1,3.7,3.5c1.3,2.1,1.9,4.4,1.6,6.7     c-0.2,2.3-1.1,4.6-2.5,6.7c2.5-0.2,4.9,0.2,7,1.1c1,0.5,2.1,1.1,2.9,1.9c0.8,0.8,1.5,1.7,2.1,2.8c1.5,2.9,1.5,6.9,0,10.1     c-1.6,3.3-4.6,5.9-8.8,6.3c-2,0.2-3.5-0.3-4.8-1.2c-1.2-0.8-2.1-2.1-2.4-3.4c-0.6-2.7,0.7-5.8,4.9-7c1.6-0.4,2.9-0.3,4,0.1     c0.5-2.6-4.9-4.2-7.9-3.3c-2.7,0.8-5.7,3.4-7.2,5.5c-2.9,4-4.4,10-3.3,13.9c1.2,5.3,6,5.8,11.5,4.4     C545,228.9,551,225.5,554.4,222.9z"></path>			</g>			<g>				<path class="st1" d="M555.3,292.6c-2.2,0.7-4,1.5-5.6,2.4c-2-0.5-3.6-1.2-5-2.1c-1.4-0.9-2.4-1.9-3.4-3.1c-1.8-2.3-2.5-5-2.3-8     c0.1-1.5,0.3-3,0.8-4.5c0.5-1.5,1.1-3.1,2-4.6c0.9-1.5,1.9-3,3.2-4.4c1.2-1.4,2.6-2.7,4.1-3.9c-7.9-1-14.1-5.2-17.4-10.1     c-0.8-1.2-1.4-2.6-1.7-3.9c-0.1-0.3-0.1-0.7-0.2-1c-0.1-0.3-0.1-0.7-0.1-1c-0.1-0.7-0.1-1.4,0-2.1c0.3-2.8,1.8-5.8,4.7-8.7     c1.3-1.3,2.9-2.5,4.8-3.8c7.3-4.7,15.1-7.2,22.9-7.7c7.6-0.5,15.3,0.8,22.9,3.3c3.7,1.3,7.4,2.9,10.9,4.7     c3.6,1.8,7.1,3.8,10.4,6c0.2-1.3,0.6-2.5,1.2-3.7c0.5-1.2,1.1-2.3,1.9-3.2c1.6-2,3.7-3.6,6.6-4.5c4.2-1.3,8.4-0.5,12,1.9     c3.5,2.4,6.2,6.3,7.5,10.7c0.3,1.2,0.6,2.3,0.6,3.5c0.1,1.2,0,2.3-0.1,3.5c-0.3,2.3-0.9,4.5-1.9,6.4c-2,3.8-5.4,6.6-9.8,7.4     c-5.6,1-10.2-1.4-13.5-5.2c-1.8,3.5-3.8,7-5.9,10.3c-2.3,3.4-4.7,6.6-7.3,9.6c-2.6,3-5.3,5.7-8.4,8.1c-3.1,2.4-6.3,4.5-9.8,6.2     C571.7,289.5,563.7,289.9,555.3,292.6z M617.8,237c-4,1.5-4.3,6.2-3.5,9.9c0.3,1,0.8,2,1.3,2.9c0.5,0.9,1.1,1.8,1.8,2.4     c1.4,1.4,3.3,2.1,5.5,1.4c2.1-0.6,3.5-2.1,4.4-4c0.4-0.9,0.6-2,0.7-3.1c0.1-1.1-0.1-2.2-0.4-3.2     C626.4,238.8,622.2,235.3,617.8,237z M572.9,286.1c8-3.3,14.4-8.5,19.7-15c1.4-1.6,2.6-3.3,3.7-5c1.2-1.7,2.3-3.5,3.3-5.4     s2.1-3.7,3.1-5.6c0.5-0.9,1-1.9,1.5-2.9c0.4-1,0.9-1.9,1.3-2.9c-3.5-2.4-7.1-4.8-10.7-6.9c-1.8-1.1-3.7-2.1-5.6-3     c-1.9-0.9-3.9-1.8-5.8-2.5c-3.9-1.5-7.9-2.6-12-3.2c-4.2-0.6-8.4-0.6-12.7,0c-4.7,0.6-11.5,2.6-16.1,5.6c-2.3,1.5-4.2,3.2-5,5.2     c-0.8,1.9-0.7,4.1,0.9,6.6c1,1.6,2.8,3,4.9,4.2c2.1,1.2,4.4,2.1,6.6,2.5c3.6,0.6,7.8-0.1,10.6-2.5c2.1-1.4,3-3.3,2.6-5.8     l-1.2-0.1c-0.5,0.8-1.2,1.5-2.3,2.1c-1.9,1.1-3.6,1.3-5.1,0.9c-1.5-0.3-2.6-1.2-3.4-2.4c-1.5-2.3-1.2-5.8,1.8-8.3     c3.3-2.7,7.2-3,10.5-1.8c3.4,1.2,6.2,4,7.3,7.1c1.4,4.8-0.7,9.4-4.4,12.7c5,0.9,8.9,4,10.1,8.8c0.4,1.6,0.4,3.3-0.1,5     c-0.5,1.7-1.4,3.4-2.6,4.7c-2.4,2.8-5.9,4.4-10.1,3.8c-3.9-0.7-5.7-3.6-5.6-6.3c0-2.7,2.1-5.4,6.5-5.5c1.6,0,2.9,0.4,3.8,1.1     c1.1-2.3-3.8-5.3-6.8-5.2c-2.8,0.1-6.4,1.8-8.5,3.5c-1.9,1.5-3.6,3.7-4.8,5.9c-0.6,1.1-1.1,2.3-1.4,3.4     c-0.4,1.1-0.6,2.2-0.6,3.2c-0.2,5.4,4.5,7.1,10.1,7.2C562.3,289.4,569,287.7,572.9,286.1z"></path>			</g>			<g>				<path class="st1" d="M630.9,307.6c-3,0.1-5.4,1.1-7.5,2.6c-2.1,1.5-3.7,3.6-4.8,5.9c-1.3-1.5-2.7-2.9-4-4.3     c-0.7-0.7-1.4-1.4-2.1-2.1c-0.7-0.7-1.5-1.4-2.2-2c-3-2.7-6.2-5.2-9.4-7.4c-1.6-1.1-3.3-2.2-5-3.1c-1.7-1-3.5-1.8-5.3-2.6     c-3.6-1.6-7.2-2.7-11-3.5c-7.7-1.5-15.8-1.1-24.1,1.5c-2.2,0.7-4,1.5-5.6,2.4c-3.5,2-5.7,4.5-6.7,7.1c-1.1,2.7-1.2,5.5-0.2,8.4     c1,2.8,2.6,5.6,5,8.1c2.4,2.5,5.6,4.7,9.2,6.2h18.2c4.4-2.2,7.5-6.1,7.4-11.1c0-0.8-0.1-1.7-0.4-2.5c-0.3-0.8-0.7-1.6-1.1-2.4     c-0.9-1.5-2.2-2.9-3.7-3.9c-3-2.1-6.9-2.8-10.7-1c-3.6,1.6-4.7,4.9-3.8,7.6c0.8,2.6,3.4,4.7,7.7,3.6c1.2-0.3,2.1-0.8,2.8-1.4     l1.1,0.4c-0.2,2.5-1.5,4.1-3.9,4.9c-3.3,1.6-7.5,1.2-10.9-0.3c-4.1-1.9-8.1-6-9.4-9.5c-1-2.8-0.5-4.9,0.8-6.6     c1.4-1.7,3.5-2.9,6.2-3.7c5.3-1.7,12.3-1.8,17-1.2c4.4,0.6,8.3,1.7,12.1,3.3c3.8,1.6,7.4,3.7,10.8,6.2c1.7,1.2,3.4,2.5,5,3.9     c1.6,1.4,3.1,2.8,4.6,4.3c3,3,5.9,6.2,8.7,9.4h9c0.1-3.8,1.6-8.3,5.8-8.7c4.7-0.5,7.9,3.9,8,8.7h8c-0.1-4.6-1.8-9.1-4.6-12.3     c-1.4-1.6-3-2.9-4.9-3.7C635.1,307.9,633,307.5,630.9,307.6z"></path>			</g>		</g>	</g></g><g class="st0">	<g>		<g>			<circle class="st1" cx="530.8" cy="324.8" r="0.4"></circle>		</g>		<g>			<circle class="st1" cx="529.8" cy="344.7" r="0.5"></circle>		</g>		<g>			<circle class="st1" cx="526.9" cy="364.5" r="0.5"></circle>		</g>		<g>			<circle class="st1" cx="522.2" cy="384" r="0.7"></circle>		</g>		<g>			<circle class="st1" cx="515.5" cy="402.8" r="1"></circle>		</g>		<g>			<circle class="st1" cx="507.1" cy="421" r="1.3"></circle>		</g>		<g>			<circle class="st1" cx="496.9" cy="438.2" r="1.7"></circle>		</g>		<g>			<circle class="st1" cx="485.1" cy="454.4" r="2.1"></circle>		</g>		<g>			<circle class="st1" cx="471.9" cy="469.3" r="2.5"></circle>		</g>		<g>			<circle class="st1" cx="457.2" cy="483" r="2.8"></circle>		</g>		<g>			<circle class="st1" cx="441.3" cy="495.1" r="3.1"></circle>		</g>		<g>			<circle class="st1" cx="424.4" cy="505.7" r="3.4"></circle>		</g>		<g>			<circle class="st1" cx="406.4" cy="514.6" r="3.5"></circle>		</g>		<g>			<circle class="st1" cx="387.7" cy="521.7" r="3.6"></circle>		</g>		<g>			<circle class="st1" cx="368.4" cy="526.9" r="3.6"></circle>		</g>		<g>			<circle class="st1" cx="348.7" cy="530.3" r="3.5"></circle>		</g>		<g>			<circle class="st1" cx="328.8" cy="531.7" r="3.4"></circle>		</g>		<g>			<circle class="st1" cx="308.8" cy="531.2" r="3.2"></circle>		</g>		<g>			<circle class="st1" cx="288.9" cy="528.8" r="2.9"></circle>		</g>		<g>			<circle class="st1" cx="269.4" cy="524.5" r="2.6"></circle>		</g>		<g>			<circle class="st1" cx="250.3" cy="518.4" r="2.3"></circle>		</g>		<g>			<circle class="st1" cx="232" cy="510.4" r="2"></circle>		</g>		<g>			<circle class="st1" cx="214.5" cy="500.6" r="1.7"></circle>		</g>		<g>			<circle class="st1" cx="198.1" cy="489.2" r="1.5"></circle>		</g>		<g>			<circle class="st1" cx="182.8" cy="476.3" r="1.3"></circle>		</g>		<g>			<circle class="st1" cx="168.8" cy="462" r="1.3"></circle>		</g>		<g>			<circle class="st1" cx="156.3" cy="446.4" r="1.2"></circle>		</g>		<g>			<circle class="st1" cx="145.3" cy="429.7" r="1.2"></circle>		</g>		<g>			<circle class="st1" cx="136" cy="412" r="1.3"></circle>		</g>		<g>			<circle class="st1" cx="128.4" cy="393.5" r="1.4"></circle>		</g>		<g>			<circle class="st1" cx="122.7" cy="374.3" r="1.6"></circle>		</g>		<g>			<circle class="st1" cx="118.9" cy="354.7" r="1.8"></circle>		</g>		<g>			<circle class="st1" cx="117" cy="334.8" r="2.1"></circle>		</g>		<g>			<circle class="st1" cx="117" cy="314.8" r="2.3"></circle>		</g>		<g>			<circle class="st1" cx="118.9" cy="294.8" r="2.6"></circle>		</g>		<g>			<circle class="st1" cx="122.7" cy="275.2" r="2.9"></circle>		</g>		<g>							<ellipse transform="matrix(9.853798e-02 -0.9951 0.9951 9.853798e-02 -139.0102 358.6072)" class="st1" cx="128.4" cy="256" rx="3.1" ry="3.1"></ellipse>		</g>		<g>			<circle class="st1" cx="136" cy="237.5" r="3.3"></circle>		</g>		<g>			<circle class="st1" cx="145.3" cy="219.8" r="3.5"></circle>		</g>		<g>			<circle class="st1" cx="156.3" cy="203.1" r="3.6"></circle>		</g>		<g>			<circle class="st1" cx="168.8" cy="187.5" r="3.7"></circle>		</g>		<g>			<circle class="st1" cx="182.8" cy="173.2" r="3.8"></circle>		</g>		<g>			<circle class="st1" cx="198.1" cy="160.3" r="3.9"></circle>		</g>		<g>			<circle class="st1" cx="214.5" cy="148.9" r="4"></circle>		</g>		<g>			<circle class="st1" cx="232" cy="139.2" r="4.1"></circle>		</g>		<g>			<circle class="st1" cx="250.3" cy="131.2" r="4.2"></circle>		</g>		<g>			<circle class="st1" cx="269.3" cy="125" r="4.3"></circle>		</g>		<g>			<circle class="st1" cx="288.9" cy="120.7" r="4.3"></circle>		</g>		<g>			<circle class="st1" cx="308.7" cy="118.3" r="4.3"></circle>		</g>		<g>			<circle class="st1" cx="328.7" cy="117.8" r="4.2"></circle>		</g>		<g>			<circle class="st1" cx="348.7" cy="119.2" r="4.2"></circle>		</g>		<g>			<circle class="st1" cx="368.4" cy="122.6" r="4.1"></circle>		</g>		<g>			<circle class="st1" cx="387.7" cy="127.8" r="4"></circle>		</g>		<g>			<circle class="st1" cx="406.4" cy="134.9" r="3.8"></circle>		</g>		<g>			<circle class="st1" cx="424.4" cy="143.8" r="3.6"></circle>		</g>		<g>			<circle class="st1" cx="441.3" cy="154.4" r="3.3"></circle>		</g>		<g>			<circle class="st1" cx="457.2" cy="166.5" r="3"></circle>		</g>		<g>			<circle class="st1" cx="471.9" cy="180.1" r="2.6"></circle>		</g>		<g>			<circle class="st1" cx="485.1" cy="195.1" r="2.2"></circle>		</g>		<g>			<circle class="st1" cx="496.9" cy="211.3" r="1.8"></circle>		</g>		<g>			<circle class="st1" cx="507.1" cy="228.5" r="1.4"></circle>		</g>		<g>			<circle class="st1" cx="515.5" cy="246.7" r="1.1"></circle>		</g>		<g>			<circle class="st1" cx="522.2" cy="265.5" r="0.8"></circle>		</g>		<g>			<circle class="st1" cx="526.9" cy="284.9" r="0.6"></circle>		</g>		<g>			<circle class="st1" cx="529.8" cy="304.7" r="0.5"></circle>		</g>	</g></g><g class="st0">	<g>		<path class="st1" d="M323.8,515.2c-105,0-190.5-85.5-190.5-190.5s85.5-190.5,190.5-190.5s190.5,85.5,190.5,190.5   S428.8,515.2,323.8,515.2z M323.8,142.2c-100.6,0-182.5,81.9-182.5,182.5s81.9,182.5,182.5,182.5s182.5-81.9,182.5-182.5   S424.4,142.2,323.8,142.2z"></path>	</g></g><image style="overflow:visible;" width="380" height="134" transform="matrix(3.4658 0 0 3.4658 -1378.929 57.0766)"></image></svg>